<svg width="25" height="16" viewBox="0 0 25 16" fill="none" xmlns="http://www.w3.org/2000/svg">
<path d="M25 2C25 1.44772 24.5523 1 24 1C23.4477 1 23 1.44772 23 2L25 2ZM24 7.99999L24 8.99999C24.5523 8.99999 25 8.55228 25 7.99999L24 7.99999ZM0.292893 7.29289C-0.0976314 7.68342 -0.0976315 8.31658 0.292894 8.7071L6.65686 15.0711C7.04738 15.4616 7.68055 15.4616 8.07107 15.0711C8.46159 14.6805 8.46159 14.0474 8.07107 13.6569L2.41421 8L8.07107 2.34314C8.46159 1.95262 8.46159 1.31945 8.07107 0.928928C7.68054 0.538404 7.04738 0.538404 6.65685 0.928929L0.292893 7.29289ZM23 2L23 7.99999L25 7.99999L25 2L23 2ZM24 6.99999L1 7L1 9L24 8.99999L24 6.99999Z" fill="#545AE8"/>
</svg>
