<svg width="98" height="109" viewBox="0 0 98 109" fill="none" xmlns="http://www.w3.org/2000/svg">
<path d="M17 1L1 22.3333V97C1 99.829 2.12381 102.542 4.12419 104.542C6.12458 106.543 8.83769 107.667 11.6667 107.667H86.3333C89.1623 107.667 91.8754 106.543 93.8758 104.542C95.8762 102.542 97 99.829 97 97V22.3333L81 1H17Z" stroke="#BEC0F0" stroke-width="2" stroke-linecap="round" stroke-linejoin="round" stroke-dasharray="6 6"/>
<path d="M1 22.3333H97" stroke="#BEC0F0" stroke-width="2" stroke-linecap="round" stroke-linejoin="round" stroke-dasharray="6 6"/>
<path d="M70.3327 43.6667C70.3327 49.3247 68.0851 54.7509 64.0843 58.7517C60.0835 62.7525 54.6573 65.0001 48.9993 65.0001C43.3414 65.0001 37.9152 62.7525 33.9144 58.7517C29.9136 54.7509 27.666 49.3247 27.666 43.6667" stroke="#BEC0F0" stroke-width="2" stroke-linecap="round" stroke-linejoin="round" stroke-dasharray="6 6"/>
</svg>
