<svg width="39" height="39" viewBox="0 0 39 39" fill="none" xmlns="http://www.w3.org/2000/svg">
<path fill-rule="evenodd" clip-rule="evenodd" d="M19.5 3.54545C10.6885 3.54545 3.54545 10.6885 3.54545 19.5C3.54545 28.3115 10.6885 35.4545 19.5 35.4545C28.3115 35.4545 35.4545 28.3115 35.4545 19.5C35.4545 10.6885 28.3115 3.54545 19.5 3.54545ZM0 19.5C0 8.73045 8.73045 0 19.5 0C30.2696 0 39 8.73045 39 19.5C39 30.2696 30.2696 39 19.5 39C8.73045 39 0 30.2696 0 19.5Z" fill="url(#paint0_linear_399_7754)"/>
<path fill-rule="evenodd" clip-rule="evenodd" d="M19.6666 8C20.587 8 21.3332 8.7611 21.3332 9.69996V18.8491L27.0784 21.7792C27.9016 22.199 28.2353 23.2202 27.8237 24.0599C27.4121 24.8997 26.411 25.24 25.5877 24.8202L18.9213 21.4202C18.3567 21.1323 18 20.5436 18 19.8997V9.69996C18 8.7611 18.7462 8 19.6666 8Z" fill="url(#paint1_linear_399_7754)"/>
<defs>
<linearGradient id="paint0_linear_399_7754" x1="23.7857" y1="-14.0833" x2="-10.931" y2="37.162" gradientUnits="userSpaceOnUse">
<stop stop-color="#DF5FFF"/>
<stop offset="1" stop-color="#3893FF"/>
</linearGradient>
<linearGradient id="paint1_linear_399_7754" x1="24.0989" y1="1.86111" x2="7.96523" y2="15.8699" gradientUnits="userSpaceOnUse">
<stop stop-color="#DF5FFF"/>
<stop offset="1" stop-color="#3893FF"/>
</linearGradient>
</defs>
</svg>
