<svg width="25" height="22" viewBox="0 0 25 22" fill="none" xmlns="http://www.w3.org/2000/svg">
<path d="M12.522 0C5.6056 0 0.0013757 4.57187 0.0013757 10.2143C0.0013757 12.5533 0.975253 14.6953 2.58942 16.4116C1.86158 18.3513 0.34573 19.9905 0.321273 20.0087C-0.00278199 20.3525 -0.0883815 20.8558 0.095046 21.2855C0.284637 21.7152 0.703438 22 1.17399 22C4.1822 22 6.51051 20.7355 7.97793 19.7288C9.34752 20.1732 10.9226 20.4286 12.522 20.4286C19.4385 20.4286 25 15.8552 25 10.2143C25 4.57335 19.4385 0 12.522 0ZM12.5269 18.0714C11.2185 18.0714 9.92862 17.8689 8.69305 17.4762L7.58026 17.1264L6.62643 17.8016C5.92941 18.2985 4.96923 18.8515 3.81388 19.2257C4.17462 18.6305 4.51677 17.9612 4.78629 17.2491L5.30576 15.8741L4.29715 14.8002C3.41523 13.8531 2.35135 12.2866 2.35135 10.2143C2.35135 5.88058 6.91258 2.35714 12.5255 2.35714C18.1383 2.35714 22.6996 5.88058 22.6996 10.2143C22.6996 14.548 18.1374 18.0714 12.5269 18.0714Z" fill="#545AE8"/>
</svg>
