<svg width="22" height="17" viewBox="0 0 22 17" fill="none" xmlns="http://www.w3.org/2000/svg">
<path fill-rule="evenodd" clip-rule="evenodd" d="M2.75617 0.550659H18.9111C19.4948 0.550659 20.0376 0.73471 20.4837 1.04692L13.9422 8.03731L13.933 8.04715L13.9316 8.04862L13.5833 8.42082C13.2126 8.81695 12.7953 9.11588 12.3377 9.31387C11.883 9.5112 11.3797 9.61068 10.8328 9.61068C10.2859 9.61068 9.78262 9.51136 9.32798 9.31387C8.87056 9.11572 8.45326 8.81631 8.08237 8.42082L7.73409 8.04862L7.73262 8.04715L7.72344 8.03731L1.18198 1.04692C1.62891 0.734706 2.17157 0.550659 2.75452 0.550659H2.75617ZM21.2162 1.80118C21.5011 2.23467 21.6674 2.75275 21.6674 3.3075V13.4979C21.6674 14.0527 21.5011 14.5708 21.2162 15.0043L15.0394 8.40322L21.2162 1.80218V1.80118ZM20.4838 15.7568C20.0369 16.069 19.4942 16.253 18.9113 16.253H2.7563C2.17268 16.253 1.62985 16.069 1.18376 15.7568L7.34719 9.1696C7.81035 9.65667 8.33464 10.0274 8.91268 10.2777C9.50615 10.535 10.1491 10.6653 10.8342 10.6653C11.5192 10.6653 12.1614 10.5348 12.7557 10.2777C13.3337 10.0267 13.8573 9.65667 14.3211 9.1696L20.4846 15.7568H20.4838ZM0.451201 15.0032C0.166354 14.5697 0 14.0516 0 13.4969V3.30645C0 2.75166 0.16635 2.23362 0.451201 1.80013L6.62805 8.40116L0.451201 15.0022V15.0032Z" fill="#545AE8"/>
</svg>
