<svg width="81" height="81" viewBox="0 0 81 81" fill="none" xmlns="http://www.w3.org/2000/svg">
<path d="M79.92 1.07989C78.4802 -0.359962 76.1534 -0.359962 74.7142 1.07989L58.5407 17.2535C53.5555 13.3766 47.308 11.046 40.5006 11.046C24.234 11.046 11.0459 24.2339 11.0459 40.5009C11.0459 47.3089 13.3765 53.5563 17.2534 58.5412L1.07988 74.7149C-0.359959 76.1547 -0.359959 78.4815 1.07988 79.9207C1.79795 80.6388 2.7403 81 3.68341 81C4.62585 81 5.56822 80.6394 6.28632 79.9213L22.4598 63.7477C27.4487 67.6247 33.6926 69.9552 40.5 69.9552C56.7665 69.9552 69.9546 56.7673 69.9546 40.5003C69.9546 33.6924 67.6241 27.4486 63.7472 22.46L79.9207 6.28636C81.3599 4.84651 81.3599 2.51972 79.92 1.0805L79.92 1.07989ZM18.4087 40.5009C18.4087 28.3177 28.3162 18.4101 40.4993 18.4101C45.2632 18.4101 49.6672 19.9418 53.2784 22.5152L22.5141 53.2799C19.9407 49.6685 18.409 45.2645 18.409 40.5006L18.4087 40.5009ZM62.5899 40.5009C62.5899 52.6842 52.6825 62.5918 40.4993 62.5918C35.7355 62.5918 31.3314 61.0601 27.7202 58.4867L58.4846 27.722C61.058 31.3334 62.5896 35.7374 62.5896 40.5013L62.5899 40.5009Z" fill="white"/>
</svg>
