<svg width="25" height="25" viewBox="0 0 25 25" fill="none" xmlns="http://www.w3.org/2000/svg">
<path d="M20.487 3.51401C19.3737 2.39824 18.0509 1.51343 16.5946 0.910389C15.1383 0.307349 13.5772 -0.00203436 12.001 1.00664e-05C5.373 1.00664e-05 0 5.37301 0 12.001C0 15.315 1.344 18.316 3.516 20.488C4.62933 21.6038 5.95213 22.4886 7.40842 23.0916C8.86471 23.6947 10.4258 24.0041 12.002 24.002C18.63 24.002 24.003 18.629 24.003 12.001C24.003 8.68701 22.659 5.68601 20.487 3.51401ZM18.945 18.941C18.0342 19.8541 16.952 20.5783 15.7605 21.0718C14.569 21.5654 13.2917 21.8186 12.002 21.817C6.579 21.817 2.183 17.421 2.183 11.998C2.18138 10.7083 2.43463 9.43103 2.92819 8.23953C3.42175 7.04802 4.14589 5.96579 5.059 5.05501C5.96956 4.14188 7.05161 3.41772 8.24296 2.92416C9.43431 2.4306 10.7115 2.17736 12.001 2.17901C17.423 2.17901 21.819 6.57501 21.819 11.997C21.8207 13.2866 21.5675 14.5637 21.0739 15.7551C20.5804 16.9464 19.8562 18.0285 18.943 18.939L18.945 18.941Z" fill="#FF3939"/>
<path d="M13.5434 12.0024L17.3984 8.14743C17.5886 7.94016 17.6913 7.66745 17.6852 7.38623C17.6791 7.10501 17.5646 6.83701 17.3657 6.63818C17.1667 6.43934 16.8986 6.32504 16.6174 6.31912C16.3362 6.31321 16.0635 6.41614 15.8564 6.60643L15.8574 6.60543L12.0024 10.4604L8.1474 6.60543C7.94013 6.41527 7.66742 6.31252 7.3862 6.31862C7.10498 6.32471 6.83698 6.43919 6.63815 6.63816C6.43931 6.83712 6.32501 7.10519 6.31909 7.38642C6.31318 7.66764 6.41611 7.94028 6.6064 8.14743L6.6054 8.14643L10.4604 12.0014L6.6054 15.8564C6.49694 15.9559 6.40973 16.0764 6.34903 16.2105C6.28834 16.3446 6.2554 16.4896 6.25221 16.6367C6.24902 16.7839 6.27564 16.9302 6.33047 17.0668C6.3853 17.2034 6.4672 17.3274 6.57125 17.4316C6.6753 17.5357 6.79934 17.6177 6.9359 17.6726C7.07247 17.7275 7.21873 17.7542 7.3659 17.7511C7.51306 17.748 7.65807 17.7152 7.7922 17.6546C7.92634 17.594 8.04682 17.5068 8.1464 17.3984L8.1474 17.3974L12.0024 13.5424L15.8574 17.3974C15.9569 17.5059 16.0773 17.5931 16.2114 17.6538C16.3455 17.7145 16.4905 17.7474 16.6377 17.7506C16.7848 17.7538 16.9311 17.7272 17.0677 17.6724C17.2043 17.6175 17.3284 17.5356 17.4325 17.4316C17.5366 17.3275 17.6186 17.2035 17.6735 17.0669C17.7285 16.9304 17.7552 16.7841 17.7521 16.6369C17.749 16.4898 17.7162 16.3448 17.6555 16.2106C17.5949 16.0765 17.5078 15.956 17.3994 15.8564L17.3984 15.8554L13.5434 12.0024Z" fill="#FF3939"/>
</svg>
