<svg width="16" height="16" viewBox="0 0 16 16" fill="none" xmlns="http://www.w3.org/2000/svg">
<path d="M7.58114 5.035C6.20629 5.035 5.0843 6.157 5.0843 7.53188C5.0843 8.90675 6.20629 10.0288 7.58114 10.0288C8.95599 10.0288 10.078 8.90675 10.078 7.53188C10.078 6.157 8.95599 5.035 7.58114 5.035ZM15.0698 7.53188C15.0698 6.49791 15.0791 5.47331 15.0211 4.44122C14.963 3.24242 14.6895 2.17848 13.8129 1.30186C12.9344 0.423362 11.8724 0.151759 10.6736 0.093692C9.63966 0.0356251 8.61508 0.0449907 7.58301 0.0449907C6.54906 0.0449907 5.52448 0.0356251 4.49241 0.093692C3.29363 0.151759 2.22971 0.425235 1.35311 1.30186C0.474625 2.18036 0.203026 3.24242 0.144961 4.44122C0.0868948 5.47519 0.0962603 6.49979 0.0962603 7.53188C0.0962603 8.56397 0.0868948 9.59045 0.144961 10.6225C0.203026 11.8213 0.476498 12.8853 1.35311 13.7619C2.23159 14.6404 3.29363 14.912 4.49241 14.9701C5.52635 15.0281 6.55094 15.0188 7.58301 15.0188C8.61696 15.0188 9.64154 15.0281 10.6736 14.9701C11.8724 14.912 12.9363 14.6385 13.8129 13.7619C14.6914 12.8834 14.963 11.8213 15.0211 10.6225C15.081 9.59045 15.0698 8.56585 15.0698 7.53188ZM7.58114 11.3737C5.45518 11.3737 3.73942 9.65788 3.73942 7.53188C3.73942 5.40588 5.45518 3.6901 7.58114 3.6901C9.7071 3.6901 11.4228 5.40588 11.4228 7.53188C11.4228 9.65788 9.7071 11.3737 7.58114 11.3737ZM11.5802 4.42998C11.0838 4.42998 10.683 4.02913 10.683 3.53275C10.683 3.03637 11.0838 2.63553 11.5802 2.63553C12.0766 2.63553 12.4774 3.03637 12.4774 3.53275C12.4775 3.65062 12.4544 3.76736 12.4094 3.87628C12.3644 3.98521 12.2983 4.08417 12.2149 4.16752C12.1316 4.25086 12.0326 4.31695 11.9237 4.36199C11.8148 4.40702 11.6981 4.43013 11.5802 4.42998Z" fill="white"/>
</svg>
