<svg width="40" height="39" viewBox="0 0 40 39" fill="none" xmlns="http://www.w3.org/2000/svg">
<path d="M3.11106 0C1.41057 0 0 1.58687 0 3.4999V28.4998C0 30.4129 1.41057 31.9997 3.11106 31.9997H15.5556V35.9998H14.2222C13.4859 35.9998 12.8888 36.6712 12.8888 37.4999C12.8888 38.3282 13.4859 39 14.2222 39H25.7778C26.5141 39 27.1112 38.3283 27.1112 37.4999C27.1112 36.6716 26.5141 35.9998 25.7778 35.9998H24.4444V31.9997H36.8889C38.5894 31.9997 40 30.4129 40 28.4998V3.4999C40 1.58687 38.5894 0 36.8889 0H3.11106ZM3.11106 3.00017H36.8891C37.1585 3.00017 37.3337 3.19722 37.3337 3.50031V28.5003C37.3337 28.803 37.1585 29.0004 36.8891 29.0004H3.11106C2.84165 29.0004 2.66648 28.8033 2.66648 28.5003V3.50031C2.66648 3.19723 2.84164 3.00017 3.11106 3.00017ZM19.5144 6.59391L7.06982 12.0941C6.57254 12.3114 6.2191 12.8921 6.2191 13.4926C6.2191 14.0929 6.57252 14.6739 7.06982 14.8912L10.667 16.4844V21C10.667 22.0732 11.2498 22.7463 11.8196 23.2341C12.3894 23.7221 13.0761 24.0967 13.889 24.4217C15.515 25.0715 17.6397 25.4998 20.0005 25.4998C22.3613 25.4998 24.4859 25.0715 26.1116 24.4217C26.9245 24.0967 27.6113 23.7221 28.181 23.2341C28.7508 22.7462 29.334 22.0731 29.334 21V16.4844L32.9311 14.8905C33.4284 14.6732 33.7819 14.0925 33.7819 13.4919C33.7819 12.8917 33.4284 12.3107 32.9311 12.0934L20.4866 6.5932C20.1267 6.44497 19.8331 6.42893 19.5144 6.5932V6.59391ZM20.0005 9.60935L28.7918 13.4999L20.0005 17.3747L11.2091 13.4999L20.0005 9.60935ZM13.3338 17.6562L19.5144 20.3906C19.8231 20.5266 20.1778 20.5266 20.4866 20.3906L26.6672 17.6562V20.7498C26.6532 20.7703 26.6514 20.7738 26.5698 20.8436C26.3324 21.0469 25.8556 21.3406 25.2225 21.5934C23.9566 22.0995 22.0717 22.4999 20.0004 22.4999C17.9291 22.4999 16.0442 22.0995 14.7781 21.5934C14.145 21.3406 13.6686 21.0469 13.431 20.8436C13.3495 20.7738 13.3476 20.7704 13.3337 20.7498L13.3338 17.6562ZM18.2228 31.9999H21.7785V36H18.2228V31.9999Z" fill="url(#paint0_linear_399_7760)"/>
<defs>
<linearGradient id="paint0_linear_399_7760" x1="24.3956" y1="-14.0833" x2="-9.98722" y2="37.9705" gradientUnits="userSpaceOnUse">
<stop stop-color="#DF5FFF"/>
<stop offset="1" stop-color="#3893FF"/>
</linearGradient>
</defs>
</svg>
