<svg width="25" height="17" viewBox="0 0 25 17" fill="none" xmlns="http://www.w3.org/2000/svg">
<path fill-rule="evenodd" clip-rule="evenodd" d="M6.07153 1.21429C6.07153 0.543654 6.61519 0 7.28582 0H23.0715C23.7422 0 24.2858 0.543654 24.2858 1.21429C24.2858 1.88492 23.7422 2.42857 23.0715 2.42857H7.28582C6.61519 2.42857 6.07153 1.88492 6.07153 1.21429Z" fill="#565656"/>
<path fill-rule="evenodd" clip-rule="evenodd" d="M6.07153 8.50005C6.07153 7.82942 6.61519 7.28577 7.28582 7.28577H23.0715C23.7422 7.28577 24.2858 7.82942 24.2858 8.50005C24.2858 9.17068 23.7422 9.71434 23.0715 9.71434H7.28582C6.61519 9.71434 6.07153 9.17068 6.07153 8.50005Z" fill="#565656"/>
<path fill-rule="evenodd" clip-rule="evenodd" d="M6.07153 15.7857C6.07153 15.1151 6.61519 14.5714 7.28582 14.5714H23.0715C23.7422 14.5714 24.2858 15.1151 24.2858 15.7857C24.2858 16.4563 23.7422 17 23.0715 17H7.28582C6.61519 17 6.07153 16.4563 6.07153 15.7857Z" fill="#565656"/>
<path fill-rule="evenodd" clip-rule="evenodd" d="M0 1.21429C0 0.543654 0.543654 0 1.21429 0H1.22643C1.89706 0 2.44071 0.543654 2.44071 1.21429C2.44071 1.88492 1.89706 2.42857 1.22643 2.42857H1.21429C0.543654 2.42857 0 1.88492 0 1.21429Z" fill="#565656"/>
<path fill-rule="evenodd" clip-rule="evenodd" d="M0 8.50005C0 7.82942 0.543654 7.28577 1.21429 7.28577H1.22643C1.89706 7.28577 2.44071 7.82942 2.44071 8.50005C2.44071 9.17068 1.89706 9.71434 1.22643 9.71434H1.21429C0.543654 9.71434 0 9.17068 0 8.50005Z" fill="#565656"/>
<path fill-rule="evenodd" clip-rule="evenodd" d="M0 15.7857C0 15.1151 0.543654 14.5714 1.21429 14.5714H1.22643C1.89706 14.5714 2.44071 15.1151 2.44071 15.7857C2.44071 16.4563 1.89706 17 1.22643 17H1.21429C0.543654 17 0 16.4563 0 15.7857Z" fill="#565656"/>
</svg>
