<svg width="31" height="31" viewBox="0 0 31 31" fill="none" xmlns="http://www.w3.org/2000/svg">
<path d="M29.7192 22.9436L26.6239 19.8484C26.0637 19.2885 25.3621 18.8912 24.5938 18.6988C23.8255 18.5064 23.0194 18.5261 22.2614 18.7558C21.5035 18.9856 20.8221 19.4167 20.29 20.0033C19.7578 20.5899 19.3949 21.3099 19.2398 22.0866C14.1356 21.1322 9.17128 16.1884 8.86228 11.7695C9.73002 11.6099 10.5286 11.1899 11.1519 10.5654C11.9725 9.74474 12.4335 8.6317 12.4335 7.47112C12.4335 6.31055 11.9725 5.1975 11.1519 4.3768L8.05747 1.28159C7.23675 0.460997 6.12367 0 4.96307 0C3.80246 0 2.68939 0.460997 1.86866 1.28159C-7.41544 10.5654 20.4351 38.4152 29.7192 29.1314C30.5393 28.3106 31 27.1978 31 26.0375C31 24.8772 30.5393 23.7644 29.7192 22.9436Z" fill="#545AE8"/>
</svg>
