<svg width="21" height="21" viewBox="0 0 21 21" fill="none" xmlns="http://www.w3.org/2000/svg">
<path fill-rule="evenodd" clip-rule="evenodd" d="M2 9.09549C2 5.16638 5.21541 1.9812 9.18182 1.9812C13.1482 1.9812 16.3636 5.16638 16.3636 9.09549C16.3636 13.0246 13.1482 16.2098 9.18182 16.2098C5.21541 16.2098 2 13.0246 2 9.09549ZM9.18182 0C4.11084 0 0 4.07219 0 9.09549C0 14.1188 4.11084 18.191 9.18182 18.191C11.124 18.191 12.9253 17.5937 14.4088 16.5743L18.4751 20.6024C18.8656 20.9892 19.4988 20.9892 19.8893 20.6024C20.2798 20.2155 20.2798 19.5883 19.8893 19.2014L15.9223 15.2717C17.4375 13.6497 18.3636 11.4797 18.3636 9.09549C18.3636 4.07219 14.2528 0 9.18182 0Z" fill="#797979"/>
</svg>
