<svg width="19" height="19" viewBox="0 0 19 19" fill="none" xmlns="http://www.w3.org/2000/svg">
<path d="M5.56346 8.71285C6.82486 7.45144 9.0248 7.45144 10.2862 8.71285L11.0733 9.49997L12.6476 7.92572L11.8605 7.1386C10.8106 6.08761 9.41224 5.50757 7.92483 5.50757C6.43742 5.50757 5.03908 6.08761 3.98921 7.1386L1.62672 9.49997C0.584968 10.5451 0 11.9605 0 13.4362C0 14.9118 0.584968 16.3272 1.62672 17.3723C2.14316 17.8895 2.75671 18.2996 3.43211 18.5789C4.10752 18.8582 4.83146 19.0013 5.56234 19C6.29342 19.0015 7.01759 18.8585 7.6932 18.5792C8.36882 18.2998 8.98254 17.8897 9.49908 17.3723L10.2862 16.5852L8.71195 15.011L7.92483 15.7981C7.29743 16.4227 6.44819 16.7733 5.5629 16.7733C4.67761 16.7733 3.82836 16.4227 3.20097 15.7981C2.57584 15.171 2.22481 14.3216 2.22481 13.4362C2.22481 12.5507 2.57584 11.7013 3.20097 11.0742L5.56346 8.71285Z" fill="#545AE8"/>
<path d="M9.49908 1.62764L8.71196 2.41476L10.2862 3.98901L11.0733 3.20188C11.7007 2.5773 12.55 2.22664 13.4353 2.22664C14.3206 2.22664 15.1698 2.5773 15.7972 3.20188C16.4223 3.82899 16.7734 4.67835 16.7734 5.56382C16.7734 6.44928 16.4223 7.29864 15.7972 7.92575L13.4347 10.2871C12.1733 11.5485 9.97336 11.5485 8.71196 10.2871L7.92484 9.5L6.35059 11.0742L7.13771 11.8614C8.18758 12.9124 9.58592 13.4924 11.0733 13.4924C12.5607 13.4924 13.9591 12.9124 15.009 11.8614L17.3714 9.5C18.4132 8.4549 18.9982 7.03944 18.9982 5.56382C18.9982 4.08819 18.4132 2.67274 17.3714 1.62764C16.3266 0.585343 14.9111 0 13.4353 0C11.9595 0 10.5439 0.585343 9.49908 1.62764Z" fill="#545AE8"/>
</svg>
