<svg width="77" height="74" viewBox="0 0 77 74" fill="none" xmlns="http://www.w3.org/2000/svg">
<path d="M73.8633 31.3152L69.9104 26.8177L70.4672 20.8643C70.6518 18.7841 70.0759 16.707 68.8442 15.0178C67.6131 13.3285 65.8096 12.1408 63.7687 11.6745L57.9261 10.3547L54.8668 5.21287L54.8662 5.21347C53.791 3.41301 52.0953 2.06458 50.0964 1.41959C48.0976 0.774025 45.9314 0.876243 44.002 1.70651L38.5028 4.07177L33.0035 1.71003C31.076 0.883359 28.9123 0.784124 26.9169 1.43089C24.921 2.07705 23.229 3.42492 22.1562 5.22354L19.0969 10.3654L13.2543 11.6816V11.681C11.2117 12.1449 9.40575 13.3295 8.17103 15.0177C6.93692 16.7057 6.35677 18.7828 6.53829 20.8642L7.08491 26.8183L3.13203 31.3157V31.3151C1.75768 32.889 1 34.9058 1 36.993C1 39.0802 1.7576 41.0971 3.13203 42.6709L7.08491 47.1684L6.53829 53.129C6.35369 55.2086 6.93028 57.2851 8.16136 58.9737C9.39306 60.6623 11.1959 61.8495 13.2368 62.3151L19.0794 63.6349L22.1387 68.7768L22.1393 68.7762C23.7061 71.3954 26.5428 72.995 29.6009 72.9855C30.7678 72.9903 31.9235 72.7572 32.9963 72.2999L38.4956 69.9381L43.9948 72.2999H43.9954C45.9224 73.1254 48.0848 73.2246 50.0795 72.5778C52.0749 71.9317 53.7662 70.5844 54.8392 68.787L57.8985 63.6452L63.7411 62.3289C65.7892 61.8681 67.6004 60.6815 68.8376 58.9894C70.0747 57.2973 70.6537 55.2146 70.4672 53.1291L69.9206 47.1719L73.8735 42.6716V42.671C75.2466 41.0959 76.0018 39.0785 76 36.9913C75.9982 34.9039 75.2388 32.8878 73.8632 31.3151L73.8633 31.3152ZM71.2782 40.4225L66.8375 45.4753C66.527 45.8285 66.376 46.293 66.4185 46.7604L67.0305 53.4479C67.1426 54.7014 66.7956 55.9524 66.0535 56.9705C65.3115 57.9884 64.2255 58.7033 62.9949 58.9836L56.4234 60.4643C55.9643 60.5683 55.5681 60.8558 55.3272 61.2598L51.8905 67.0286H51.8899C51.2444 68.1111 50.2254 68.9223 49.0242 69.3114C47.8225 69.7005 46.5201 69.6408 45.3597 69.1434L39.1904 66.4734C38.7582 66.2887 38.2685 66.2887 37.8364 66.4734L31.6497 69.1297C30.4888 69.627 29.1857 69.6862 27.9846 69.2964C26.7828 68.9067 25.7645 68.0944 25.1189 67.0112L21.6822 61.2424C21.4407 60.8377 21.0427 60.5502 20.5824 60.4474L14.0144 58.9668H14.0138C12.7869 58.6865 11.7027 57.974 10.9601 56.9602C10.2181 55.9459 9.86864 54.699 9.97533 53.4479L10.5903 46.7639H10.5909C10.6334 46.2965 10.4818 45.8314 10.1713 45.4788L5.72758 40.4225C4.89986 39.4751 4.44373 38.2604 4.44373 37.0033C4.44373 35.7469 4.89986 34.5324 5.72758 33.5842L10.1683 28.5285C10.4805 28.1765 10.6328 27.7108 10.5872 27.2434L9.97526 20.5421C9.86557 19.291 10.2132 18.0423 10.9546 17.0267C11.6954 16.0112 12.7798 15.2974 14.0073 15.0165L20.5788 13.5359C21.0331 13.4283 21.4239 13.1414 21.6612 12.7403L25.0979 6.97149H25.0985C25.7446 5.88898 26.763 5.07785 27.9648 4.68871C29.1659 4.29957 30.4683 4.35936 31.6287 4.85668L37.8154 7.51299C38.2487 7.6947 38.7366 7.6947 39.1693 7.51299L45.356 4.85668C46.517 4.36175 47.8188 4.30317 49.0193 4.69231C50.2205 5.08084 51.2388 5.89077 51.8868 6.97157L55.3235 12.7403C55.5651 13.145 55.9631 13.4325 56.4234 13.5359L62.9913 15.0165H62.9919C64.22 15.2963 65.3055 16.01 66.0481 17.0256C66.7901 18.0411 67.1389 19.2898 67.0304 20.542L66.4155 27.226H66.4149C66.3699 27.6941 66.5216 28.1597 66.8345 28.5112L71.2782 33.5675C72.1101 34.5167 72.568 35.7343 72.568 36.9949C72.568 38.2555 72.1101 39.473 71.2782 40.4222L71.2782 40.4225ZM38.5022 10.8617C31.5525 10.8617 24.8876 13.6149 19.9729 18.5158C15.0587 23.4167 12.2979 30.0636 12.2979 36.9948C12.2979 43.9259 15.0586 50.5724 19.9729 55.4737C24.8871 60.3746 31.5522 63.1279 38.5022 63.1279C45.4522 63.1279 52.1168 60.3747 57.0314 55.4737C61.9456 50.5729 64.7064 43.9259 64.7064 36.9948C64.6992 30.0664 61.9361 23.4236 57.0237 18.5235C52.1106 13.6243 45.4499 10.8689 38.5022 10.8617ZM38.5022 59.7002C32.464 59.7002 26.673 57.308 22.4034 53.0497C18.1335 48.792 15.7348 43.0167 15.7348 36.9946C15.7348 30.9726 18.1335 25.1975 22.4034 20.9396C26.6727 16.6813 32.4637 14.2891 38.5022 14.2891C44.5406 14.2891 50.3314 16.6813 54.6009 20.9396C58.8708 25.1972 61.2695 30.9726 61.2695 36.9946C61.2623 43.0139 58.8613 48.7851 54.5931 53.042C50.3251 57.2985 44.5381 59.6931 38.502 59.7003L38.5022 59.7002ZM48.191 29.5809V29.5803C48.5399 29.8744 48.7569 30.2934 48.7946 30.7471C48.833 31.2001 48.6885 31.6496 48.3942 31.9969L36.9282 45.5053V45.5059C36.6004 45.8896 36.1203 46.1102 35.615 46.109H35.57H35.5706C35.0492 46.0922 34.5631 45.84 34.2508 45.4234L28.5556 37.9886C27.9803 37.2313 28.1295 36.1524 28.8889 35.5792C29.6483 35.0053 30.7302 35.1542 31.3049 35.9115L35.7043 41.6599L45.7684 29.7966C46.0603 29.4469 46.4804 29.2275 46.9348 29.1875C47.3891 29.1468 47.8416 29.2885 48.191 29.5802L48.191 29.5809Z" fill="white" stroke="white" stroke-width="1.2"/>
</svg>
