<svg width="27" height="6" viewBox="0 0 27 6" fill="none" xmlns="http://www.w3.org/2000/svg">
<path fill-rule="evenodd" clip-rule="evenodd" d="M13.5 6C11.8432 6 10.5 4.65684 10.5 2.99997C10.5 1.3431 11.8432 -5.4895e-05 13.5 -5.49674e-05C15.1569 -5.50398e-05 16.5001 1.3431 16.5001 2.99997C16.5001 4.65684 15.1569 6 13.5 6Z" fill="#545AE8"/>
<path fill-rule="evenodd" clip-rule="evenodd" d="M3.00003 6C1.34316 6 -5.87113e-08 4.65684 -1.31135e-07 2.99997C-2.03559e-07 1.3431 1.34316 -5.4895e-05 3.00003 -5.49674e-05C4.6569 -5.50398e-05 6.00005 1.3431 6.00005 2.99997C6.00005 4.65684 4.6569 6 3.00003 6Z" fill="#545AE8"/>
<path fill-rule="evenodd" clip-rule="evenodd" d="M24 6C22.3432 6 21 4.65684 21 2.99997C21 1.3431 22.3432 -5.4895e-05 24 -5.49674e-05C25.6569 -5.50398e-05 27.0001 1.3431 27.0001 2.99997C27.0001 4.65684 25.6569 6 24 6Z" fill="#545AE8"/>
</svg>
