<svg width="17" height="17" viewBox="0 0 17 17" fill="none" xmlns="http://www.w3.org/2000/svg">
<path d="M15.5713 3.73983C13.1753 0.0460204 8.28354 -1.05214 4.4899 1.24401C0.796092 3.54016 -0.401899 8.53179 1.99408 12.2256L2.19375 12.5251L1.39509 15.5201L4.39007 14.7214L4.68956 14.9211C5.98739 15.6199 7.38505 16.0192 8.7827 16.0192C10.2802 16.0192 11.7777 15.6199 13.0755 14.8212C16.7693 12.4253 17.8675 7.53347 15.5713 3.73983ZM13.4748 11.4269C13.0755 12.0259 12.5763 12.4253 11.8775 12.5251C11.4782 12.5251 10.979 12.7248 8.98237 11.9261C7.28521 11.1274 5.88756 9.82962 4.88923 8.33213C4.29023 7.6333 3.99074 6.73481 3.8909 5.83631C3.8909 5.03765 4.1904 4.33882 4.68956 3.83966C4.88923 3.64 5.08889 3.54016 5.28856 3.54016H5.78772C5.98739 3.54016 6.18705 3.54016 6.28689 3.93949C6.48655 4.43866 6.98571 5.63665 6.98571 5.73648C7.08555 5.83631 7.08555 6.03598 6.98571 6.13581C7.08555 6.33548 6.98572 6.53514 6.88588 6.63497C6.78605 6.73481 6.68622 6.93447 6.58638 7.0343C6.38672 7.13414 6.28689 7.3338 6.38672 7.53347C6.78605 8.13246 7.28521 8.73146 7.78438 9.23062C8.38337 9.72979 8.98237 10.1291 9.6812 10.4286C9.88086 10.5284 10.0805 10.5284 10.1804 10.3288C10.2802 10.1291 10.7794 9.62995 10.979 9.43029C11.1787 9.23062 11.2785 9.23062 11.4782 9.33045L13.0755 10.1291C13.2752 10.2289 13.4748 10.3288 13.5747 10.4286C13.6745 10.7281 13.6745 11.1274 13.4748 11.4269Z" fill="white"/>
</svg>
