<svg width="24" height="25" viewBox="0 0 24 25" fill="none" xmlns="http://www.w3.org/2000/svg">
<path fill-rule="evenodd" clip-rule="evenodd" d="M17.415 14.4408C17.117 14.2912 15.656 13.5703 15.384 13.4699C15.112 13.3705 14.914 13.3213 14.715 13.6205C14.517 13.9177 13.948 14.5904 13.775 14.7892C13.601 14.989 13.428 15.0131 13.131 14.8645C12.834 14.7139 11.876 14.3996 10.741 13.3835C9.858 12.5923 9.261 11.6153 9.088 11.3161C8.915 11.0179 9.069 10.8562 9.218 10.7076C9.352 10.5741 9.515 10.3592 9.664 10.1855C9.813 10.0108 9.862 9.88627 9.961 9.68646C10.061 9.48765 10.011 9.31394 9.936 9.16434C9.862 9.01473 9.268 7.54575 9.02 6.94832C8.779 6.36695 8.534 6.44627 8.352 6.43623C8.178 6.4282 7.98 6.42619 7.782 6.42619C7.584 6.42619 7.262 6.50049 6.99 6.79971C6.717 7.09793 5.95 7.81986 5.95 9.28884C5.95 10.7568 7.014 12.1756 7.163 12.3754C7.312 12.5742 9.258 15.5885 12.239 16.8807C12.949 17.188 13.502 17.3717 13.933 17.5083C14.645 17.7362 15.293 17.7041 15.805 17.6268C16.375 17.5414 17.563 16.9048 17.811 16.208C18.058 15.5112 18.058 14.9137 17.984 14.7892C17.91 14.6647 17.712 14.5904 17.414 14.4408H17.415ZM11.993 21.8741H11.989C10.2184 21.8744 8.48037 21.3965 6.957 20.4904L6.597 20.2756L2.855 21.2616L3.854 17.5987L3.619 17.2231C2.62914 15.641 2.10529 13.81 2.108 11.9416C2.11 6.46937 6.544 2.01725 11.997 2.01725C14.637 2.01725 17.119 3.05146 18.985 4.92709C19.9054 5.84742 20.6349 6.94186 21.1313 8.14709C21.6277 9.35233 21.8811 10.6444 21.877 11.9487C21.875 17.4209 17.441 21.8741 11.993 21.8741ZM20.405 3.50229C19.3032 2.38868 17.9922 1.50571 16.5481 0.904522C15.1039 0.303339 13.5553 -0.0040929 11.992 4.1145e-05C5.438 4.1145e-05 0.102 5.35684 0.1 11.9406C0.096963 14.0359 0.644374 16.0949 1.687 17.9099L0 24.0981L6.304 22.4373C8.04787 23.3914 10.0021 23.8912 11.988 23.8913H11.993C18.547 23.8913 23.883 18.5345 23.885 11.9497C23.8898 10.3806 23.5848 8.82606 22.9874 7.37609C22.3901 5.92612 21.5124 4.60947 20.405 3.50229Z" fill="white"/>
</svg>
