<svg width="21" height="21" viewBox="0 0 21 21" fill="none" xmlns="http://www.w3.org/2000/svg">
<path d="M19.2604 4.80059C16.1464 -0.000158696 9.78862 -1.42741 4.85812 1.55684C0.0573664 4.54109 -1.49963 11.0286 1.61437 15.8293L1.87387 16.2186L0.835867 20.1111L4.72837 19.0731L5.11762 19.3326C6.80437 20.2408 8.62087 20.7598 10.4374 20.7598C12.3836 20.7598 14.3299 20.2408 16.0166 19.2028C20.8174 16.0888 22.2446 9.73109 19.2604 4.80059ZM16.5356 14.7913C16.0166 15.5698 15.3679 16.0888 14.4596 16.2186C13.9406 16.2186 13.2919 16.4781 10.6969 15.4401C8.49112 14.4021 6.67462 12.7153 5.37712 10.7691C4.59862 9.86084 4.20937 8.69309 4.07962 7.52534C4.07962 6.48734 4.46887 5.57909 5.11762 4.93034C5.37712 4.67084 5.63662 4.54109 5.89612 4.54109H6.54487C6.80437 4.54109 7.06387 4.54109 7.19362 5.06009C7.45312 5.70884 8.10187 7.26584 8.10187 7.39559C8.23162 7.52534 8.23162 7.78484 8.10187 7.91459C8.23162 8.17409 8.10187 8.43359 7.97212 8.56334C7.84237 8.69309 7.71262 8.95259 7.58287 9.08234C7.32337 9.21209 7.19362 9.47159 7.32337 9.73109C7.84237 10.5096 8.49112 11.2881 9.13987 11.9368C9.91837 12.5856 10.6969 13.1046 11.6051 13.4938C11.8646 13.6236 12.1241 13.6236 12.2539 13.3641C12.3836 13.1046 13.0324 12.4558 13.2919 12.1963C13.5514 11.9368 13.6811 11.9368 13.9406 12.0666L16.0166 13.1046C16.2761 13.2343 16.5356 13.3641 16.6654 13.4938C16.7951 13.8831 16.7951 14.4021 16.5356 14.7913Z" fill="#545AE8"/>
</svg>
