<svg width="31" height="31" viewBox="0 0 31 31" fill="none" xmlns="http://www.w3.org/2000/svg">
<path d="M6.99762 28.5781L7.58062 28.8688C10.0102 30.3219 12.731 31 15.452 31C24.0034 31 31 24.025 31 15.5C31 11.4313 29.3479 7.4594 26.4328 4.5531C23.5175 1.64681 19.6304 0 15.452 0C6.90052 0 -0.0962357 6.97499 0.00100141 15.5969C0.00100141 18.5031 0.875578 21.3126 2.33316 23.7343L2.72183 24.3157L1.16715 30.0313L6.99762 28.5781Z" fill="#00E676"/>
<path d="M23.1911 18.9017L24.2689 19.3877C24.4648 19.4848 24.5629 19.5821 24.5629 19.5821V20.2624L24.5625 20.2645C24.4645 20.7496 24.3666 21.2348 24.171 21.6229C24.0729 21.8174 23.877 22.0118 23.681 22.2062C23.4851 22.4005 23.2891 22.4976 23.0932 22.692L22.8971 22.8865C22.7011 23.0809 22.5052 23.0809 22.2113 23.2752C21.8193 23.4696 21.2314 23.664 20.7415 23.664H19.7617C19.4677 23.5667 19.0758 23.5667 18.7818 23.4696C16.1363 22.7893 13.7847 21.5258 11.727 19.7763C11.5311 19.4848 11.2371 19.2905 10.9432 18.9988L10.5513 18.6101C8.98344 17.1523 7.80773 15.5 6.92588 13.6535L6.82784 13.3619C6.53384 12.6816 6.33789 11.904 6.33789 11.1265C6.33789 10.0575 6.72979 8.9884 7.41569 8.1137C7.61164 7.9192 7.70969 7.72498 7.90564 7.53047C8.10159 7.43336 8.29754 7.239 8.49349 7.14175L8.59154 7.04464C8.78763 7.04464 8.98344 6.94739 9.17953 6.94739H10.2573C10.5513 7.04464 10.7471 7.14175 10.9432 7.43336C11.2371 8.01645 12.4129 10.6406 12.5108 11.1265C12.6089 11.4181 12.5108 11.8069 12.3149 12.0985C12.1189 12.2928 12.021 12.5843 11.8249 12.7788C11.5311 13.0703 11.1392 13.5563 11.1392 13.5563C11.0411 13.6535 11.0411 13.8479 11.0411 14.0422C11.1392 14.2366 11.1392 14.3337 11.2371 14.431L11.3351 14.6253C11.8249 15.5 12.5108 16.2776 13.1967 16.958C13.3927 17.1523 13.6867 17.3467 13.8826 17.5411C14.6666 18.3185 15.6463 18.9017 16.7241 19.3877L17.2141 19.5821C17.3121 19.6792 17.5081 19.7764 17.606 19.7764H17.704C17.9 19.7764 18.0959 19.6792 18.194 19.4848C19.5658 17.9298 19.6637 17.8327 19.6637 17.8327C19.8596 17.7354 20.0556 17.6382 20.3496 17.6382C20.4476 17.6382 20.5455 17.7354 20.6436 17.7354C21.6235 18.2214 23.1911 18.9017 23.1911 18.9017Z" fill="white"/>
</svg>
