<svg width="24" height="16" viewBox="0 0 24 16" fill="none" xmlns="http://www.w3.org/2000/svg">
<path d="M22.7053 2.39555C22.5781 1.94182 22.3304 1.53104 21.9884 1.20687C21.6367 0.872731 21.2057 0.633715 20.7361 0.51238C18.9783 0.0490748 11.9361 0.049075 11.9361 0.049075C9.00024 0.0156727 6.06513 0.162584 3.14731 0.48898C2.67764 0.61928 2.24744 0.863637 1.89499 1.20032C1.54868 1.53352 1.29784 1.94441 1.1668 2.39461C0.85203 4.09035 0.699092 5.81216 0.71005 7.53683C0.698819 9.25995 0.851382 10.9812 1.1668 12.679C1.29503 13.1274 1.54494 13.5364 1.89218 13.8668C2.23942 14.1972 2.67184 14.4359 3.14731 14.5622C4.92846 15.0246 11.9361 15.0246 11.9361 15.0246C14.8756 15.058 17.8145 14.9111 20.7361 14.5847C21.2057 14.4633 21.6367 14.2243 21.9884 13.8902C22.3303 13.5661 22.5777 13.1552 22.7044 12.7015C23.0274 11.0064 23.1844 9.2839 23.1733 7.55836C23.1976 5.82551 23.0408 4.09486 22.7053 2.39461V2.39555ZM9.69723 10.7416V4.33301L15.5564 7.53777L9.69723 10.7416Z" fill="white"/>
</svg>
