<svg width="51" height="51" viewBox="0 0 51 51" fill="none" xmlns="http://www.w3.org/2000/svg">
<path d="M50.1375 12.9941C50.0636 12.8116 49.9557 12.646 49.8195 12.5061L38.0554 0.451895V0.451546C37.7786 0.171817 37.4059 0.0141653 37.0172 0.0117188H4.66484C3.49487 0.0117188 2.37257 0.487815 1.54507 1.33572C0.717902 2.18363 0.25293 3.33323 0.25293 4.53205V37.6829C0.25293 38.8817 0.717911 40.0317 1.54507 40.8792C2.37258 41.7272 3.49487 42.2032 4.66484 42.2032H14.9589V39.1897H4.66484C4.27474 39.1897 3.90065 39.031 3.62489 38.7485C3.34916 38.4656 3.19428 38.0826 3.19428 37.6829V4.53201C3.19428 4.13264 3.34916 3.74933 3.62489 3.46678C3.90061 3.18391 4.2747 3.02521 4.66484 3.02521H35.5471V10.5594C35.5471 11.7583 36.0121 12.9082 36.8392 13.7561C37.6667 14.6037 38.7887 15.0801 39.959 15.0801H47.3116V37.6822C47.3116 38.0819 47.1567 38.4649 46.881 38.7478C46.6052 39.0303 46.2312 39.189 45.841 39.189H35.5469V42.2026H45.841C47.011 42.2026 48.1333 41.7265 48.9608 40.8786C49.788 40.031 50.2529 38.8811 50.2529 37.6823V13.5729C50.2523 13.3745 50.2131 13.1778 50.1382 12.9943L50.1375 12.9941ZM38.4874 10.5591V5.15561L45.2318 12.0659H39.9583C39.5682 12.0659 39.1941 11.9072 38.9184 11.6247C38.6426 11.3421 38.4874 10.9588 38.4874 10.5591L38.4874 10.5591Z" fill="#545AE8"/>
<path d="M35.5456 22.6128C35.5511 19.077 33.8269 15.7736 30.954 13.8152C28.0811 11.8564 24.4416 11.5031 21.2612 12.8738C18.0802 14.2446 15.7815 17.1574 15.1385 20.6313C14.4955 24.1052 15.5939 27.6779 18.0638 30.147H17.6285V48.2292C17.6291 48.6729 17.7908 49.1005 18.0825 49.4284C18.3739 49.7562 18.7746 49.9613 19.2055 50.0032C19.6365 50.045 20.0674 49.9209 20.4139 49.6547L25.2521 45.9387L30.0902 49.6547C30.4367 49.9209 30.8677 50.045 31.2986 50.0032C31.7295 49.9613 32.1302 49.7562 32.4216 49.4284C32.7133 49.1005 32.875 48.6729 32.8757 48.2292V30.147H32.4403C34.4269 28.169 35.5471 25.4512 35.5461 22.6128H35.5456ZM25.2516 15.5818C27.0713 15.5818 28.8165 16.3227 30.1036 17.6414C31.3904 18.9599 32.1133 20.7481 32.1133 22.6128C32.1133 24.4778 31.3903 26.266 30.1036 27.5844C28.8165 28.9029 27.0713 29.6437 25.2516 29.6437C23.4318 29.6437 21.6866 28.9028 20.3995 27.5844C19.1128 26.266 18.3898 24.4778 18.3898 22.6128C18.3915 20.7488 19.1149 18.9612 20.4012 17.6432C21.688 16.3247 23.4321 15.5836 25.2516 15.5818ZM29.3928 44.6637L26.2959 42.2829L26.2955 42.2833C25.9946 42.0513 25.628 41.9261 25.2516 41.9261C24.8751 41.9261 24.5085 42.0513 24.2076 42.2833L21.1107 44.6641L21.1103 32.2563C23.746 33.4621 26.7572 33.4621 29.3929 32.2563L29.3928 44.6637Z" fill="#545AE8"/>
</svg>
