<svg width="51" height="50" viewBox="0 0 51 50" fill="none" xmlns="http://www.w3.org/2000/svg">
<path d="M10.5045 27.0484C8.7014 25.0814 11.4881 22.2943 13.4555 24.0974L20.1767 30.9825L36.7338 14.7531C38.5369 12.786 41.4879 15.7366 39.5209 17.5401L21.6521 35.4089C20.8325 36.0646 19.5211 36.0646 18.8651 35.4089L10.5043 27.0481L10.5045 27.0484Z" fill="#545AE8"/>
<path d="M25.0958 0C38.8664 0 50.0137 11.1473 50.0137 25.0821C50.0137 38.8527 38.8664 50 25.0958 50C11.161 50 0.0136719 38.8527 0.0136719 25.0821C0.0136719 11.1473 11.161 0 25.0958 0ZM25.0958 3.6067C13.2922 3.6067 3.62082 13.279 3.62082 25.0817C3.62082 36.8853 13.1289 46.3933 25.0958 46.3933C36.8994 46.3933 46.4074 36.8853 46.4074 25.0817C46.4074 13.1147 36.8994 3.6067 25.0958 3.6067Z" fill="#545AE8"/>
</svg>
