<svg width="51" height="51" viewBox="0 0 51 51" fill="none" xmlns="http://www.w3.org/2000/svg">
<path d="M0.253308 46.3245C0.253308 48.6164 2.10733 50.4912 4.42002 50.4912H46.0862C48.3777 50.4912 50.2529 48.6164 50.2529 46.3245L50.2526 4.65796C50.2526 2.34602 48.3777 0.491211 46.0858 0.491211H4.41965C2.10695 0.491211 0.25293 2.34564 0.25293 4.65796L0.253308 46.3245ZM4.42002 4.65796H46.0862V46.3245L4.42002 46.3241V4.65796Z" fill="#545AE8"/>
<path d="M10.681 17.1472H29.4311C30.5827 17.1472 31.5145 16.2155 31.5145 15.0638C31.5145 13.9122 30.5828 12.9805 29.4311 12.9805H10.681C9.52941 12.9805 8.59766 13.9122 8.59766 15.0638C8.59766 16.2155 9.52977 17.1472 10.681 17.1472Z" fill="#545AE8"/>
<path d="M39.8474 21.3145H10.681C9.52941 21.3145 8.59766 22.2462 8.59766 23.3978C8.59766 24.5495 9.52939 25.4812 10.681 25.4812H39.8474C40.9991 25.4812 41.9308 24.5495 41.9308 23.3978C41.9308 22.2462 40.9991 21.3145 39.8474 21.3145Z" fill="#545AE8"/>
<path d="M37.7639 31.7308C37.7639 30.5792 36.8322 29.6475 35.6805 29.6475H10.681C9.52941 29.6475 8.59766 30.5792 8.59766 31.7308C8.59766 32.8825 9.52939 33.8142 10.681 33.8142H35.6805C36.8325 33.8142 37.7639 32.8825 37.7639 31.7308Z" fill="#545AE8"/>
<path d="M33.5707 37.9805H10.6546C9.50304 37.9805 8.57129 38.9122 8.57129 40.0638C8.57129 41.2155 9.50302 42.1472 10.6546 42.1472H33.5707C34.7223 42.1472 35.6541 41.2155 35.6541 40.0638C35.6541 38.9122 34.7223 37.9805 33.5707 37.9805Z" fill="#545AE8"/>
</svg>
