<svg width="51" height="51" viewBox="0 0 51 51" fill="none" xmlns="http://www.w3.org/2000/svg">
<path d="M40.5008 0.182129H15.503C12.8508 0.182129 10.3079 1.31126 8.43216 3.32048C6.55703 5.32971 5.50384 8.05496 5.50384 10.8963V37.2448L1.97111 41.0302H1.97053C1.03009 42.0341 0.501163 43.3981 0.500002 44.8205C0.49884 46.2423 1.02543 47.6069 1.96413 48.6127C2.90283 49.6185 4.17629 50.1834 5.50386 50.1821H40.5009C43.1524 50.1821 45.6959 49.053 47.5711 47.0438C49.4467 45.0345 50.5 42.3093 50.5 39.468V10.8969C50.5 8.05573 49.4468 5.33031 47.5711 3.32109C45.6959 1.31187 43.1526 0.182735 40.5009 0.182735L40.5008 0.182129ZM45.5007 39.4674L45.5001 39.468C45.5001 40.8886 44.9735 42.2513 44.036 43.2559C43.0985 44.2605 41.8267 44.8247 40.5009 44.8247H5.50389L10.5038 39.4673L10.5032 10.8962C10.5032 9.47562 11.0298 8.11295 11.9679 7.10834C12.9054 6.10376 14.1772 5.53951 15.503 5.53951H40.5009C41.8267 5.53951 43.0984 6.10377 44.036 7.10834C44.9735 8.11292 45.5001 9.47566 45.5001 10.8962L45.5007 39.4674Z" fill="#545AE8"/>
<path d="M25.5029 24.2893H30.5028V37.682H25.5029V24.2893Z" fill="#545AE8"/>
<path d="M30.5008 15.3612C30.5008 16.8409 29.3814 18.0399 28.0009 18.0399C26.6205 18.0399 25.501 16.841 25.501 15.3612C25.501 13.882 26.6204 12.6831 28.0009 12.6831C29.3813 12.6831 30.5008 13.882 30.5008 15.3612Z" fill="#545AE8"/>
</svg>
