<svg width="51" height="51" viewBox="0 0 51 51" fill="none" xmlns="http://www.w3.org/2000/svg">
<path d="M44.7077 0.751075H13.4323C10.2686 0.751075 7.72713 3.50389 7.72713 6.87461L7.51971 36.9304H2.17729C1.29551 36.9304 0.621094 37.6608 0.621094 38.616V42.7172C0.621094 47.043 3.78476 50.5824 7.72675 50.751H34.1271H34.4902C38.5878 50.751 41.9072 47.1556 41.9072 42.7172L41.9075 16.3689H49.0649C49.9467 16.3689 50.6211 15.6384 50.6211 14.6833V7.15529C50.6211 3.61597 47.9757 0.750977 44.7081 0.750977L44.7077 0.751075ZM3.73295 42.7177V40.3021H27.0727V42.7177C27.0727 44.4593 27.5914 46.0884 28.4732 47.3808H8.03801C5.65221 47.3808 3.73295 45.3019 3.73295 42.7177ZM38.7952 42.7177C38.7952 45.3019 36.8759 47.3808 34.4901 47.3808C32.1043 47.3808 30.185 45.3019 30.185 42.7177V38.6165C30.185 37.6614 29.5107 36.9309 28.6288 36.9309L10.6308 36.9313L10.8382 6.87548C10.8382 5.35849 11.9791 4.12267 13.4314 4.12267H39.5204C39.0534 5.02171 38.7943 6.03292 38.7943 7.15617L38.7952 42.7177ZM47.5087 12.9981H41.9071V7.15529C41.9071 5.46969 43.1519 4.12179 44.7077 4.12179C46.2639 4.12179 47.5083 5.47018 47.5083 7.15529L47.5087 12.9981Z" fill="#545AE8"/>
<path d="M15.7144 13.504H23.7536C24.6354 13.504 25.3098 12.7736 25.3098 11.8184C25.3098 10.8633 24.6354 10.1328 23.7536 10.1328L15.7144 10.1332C14.8326 10.1332 14.1582 10.8636 14.1582 11.8188C14.1586 12.7735 14.8329 13.504 15.7144 13.504V13.504Z" fill="#545AE8"/>
<path d="M33.0898 16.875H15.7144C14.8326 16.875 14.1582 17.6054 14.1582 18.5606C14.1582 19.5158 14.8326 20.2462 15.7144 20.2462H33.0898C33.9716 20.2462 34.646 19.5158 34.646 18.5606C34.646 17.6054 33.9717 16.875 33.0898 16.875Z" fill="#545AE8"/>
<path d="M33.0898 23.6162H15.7144C14.8326 23.6162 14.1582 24.3467 14.1582 25.3018C14.1582 26.2569 14.8326 26.9874 15.7144 26.9874H33.0898C33.9716 26.9874 34.646 26.257 34.646 25.3018C34.646 24.3467 33.9717 23.6162 33.0898 23.6162Z" fill="#545AE8"/>
<path d="M33.0898 30.3574H15.7144C14.8326 30.3574 14.1582 31.0879 14.1582 32.043C14.1582 32.9982 14.8326 33.7286 15.7144 33.7286H33.0898C33.9716 33.7286 34.646 32.9982 34.646 32.043C34.646 31.0879 33.9717 30.3574 33.0898 30.3574Z" fill="#545AE8"/>
</svg>
