<svg width="50" height="50" viewBox="0 0 50 50" fill="none" xmlns="http://www.w3.org/2000/svg">
<path d="M25.0016 0.000757166C11.2125 0.000757166 0 11.2131 0 25.002C0 38.7908 11.2125 50 25.0016 50C38.7906 50 50 38.7908 50 25.002C50 21.567 49.2865 18.1653 47.9148 15.016C47.7663 14.6463 47.4746 14.3529 47.1057 14.2028C46.7369 14.0522 46.3233 14.0579 45.9585 14.2184C45.5942 14.3784 45.3103 14.6795 45.1716 15.0529C45.0333 15.4263 45.0522 15.8398 45.2237 16.1992C46.434 18.9781 47.059 21.9712 47.059 25.002C47.059 37.2006 37.2009 47.0591 25.0016 47.0591C12.8022 47.0591 2.94412 37.2012 2.94412 25.002C2.94412 12.8029 12.8022 2.94491 25.0016 2.94491C28.0332 2.94491 31.0251 3.5665 33.8045 4.77723C34.1639 4.94914 34.5775 4.96801 34.9508 4.82933C35.3242 4.69107 35.6253 4.40715 35.7858 4.0424C35.9458 3.67806 35.9515 3.26408 35.8014 2.89522C35.6508 2.52637 35.3574 2.23465 34.9877 2.08613C31.8379 0.713761 28.4374 0.00100198 25.0016 0.00100198L25.0016 0.000757166ZM43.5403 0.000757166C43.1608 0.0106041 42.7993 0.166921 42.5322 0.437299L37.1242 5.831C36.8168 6.13953 36.6626 6.56869 36.702 7.00275L37.038 10.8025L24.2636 23.5798H24.264C23.9489 23.8453 23.7598 24.2305 23.7425 24.642C23.7253 25.0535 23.8812 25.4536 24.1725 25.7445C24.4642 26.0358 24.8643 26.1913 25.2758 26.1732C25.6873 26.1552 26.0722 25.9656 26.3372 25.6505L39.0465 12.953L42.9984 13.2976C43.4325 13.3374 43.8617 13.1827 44.1706 12.8754L49.5672 7.47027H49.5668C49.9673 7.06531 50.0982 6.46588 49.9025 5.93131C49.7071 5.39671 49.2205 5.02294 48.6535 4.97165L45.3219 4.6787L45.0289 1.34713C44.9641 0.577025 44.3142 -0.0117945 43.5412 0.000179397L43.5403 0.000757166ZM42.38 4.74535L42.4977 6.15553C42.5552 6.86984 43.1193 7.43894 43.8333 7.50248L45.2549 7.6231L42.5753 10.3142L39.9244 10.0758L39.6975 7.42779L42.38 4.74535ZM25.0008 8.27217C15.7786 8.27217 8.2708 15.7797 8.2708 25.002C8.2708 34.2242 15.7784 41.7286 25.0008 41.7286C34.2233 41.7286 41.7277 34.224 41.7277 25.002C41.7277 22.5091 41.1726 20.0432 40.0993 17.7932C39.9339 17.4358 39.6323 17.1593 39.2618 17.0259C38.8913 16.8922 38.4827 16.9127 38.1274 17.0821C37.772 17.252 37.4992 17.5568 37.37 17.9286C37.2407 18.3007 37.2662 18.7089 37.4397 19.0626C38.3247 20.9171 38.7867 22.9472 38.7867 25.002C38.7867 32.6346 32.6335 38.7876 25.0008 38.7876C17.3681 38.7876 11.2149 32.6346 11.2149 25.002C11.2149 17.3694 17.3681 11.2163 25.0008 11.2163C27.0178 11.2163 29.0007 11.652 30.8281 12.5058C31.1839 12.6925 31.5999 12.7257 31.9807 12.5981C32.361 12.4701 32.6729 12.1923 32.8435 11.8292C33.0142 11.4657 33.029 11.0484 32.8842 10.6738C32.7397 10.2997 32.4484 10.0006 32.0775 9.84629C29.8608 8.81031 27.4482 8.27246 25.0008 8.27246L25.0008 8.27217ZM24.9463 17.141C20.6284 17.1665 17.1228 20.715 17.14 25.0334C17.1573 29.3516 20.6912 32.8683 25.0095 32.8596C29.3278 32.8514 32.8588 29.3201 32.8588 25.0019C32.8678 24.6059 32.7168 24.2235 32.4399 23.9408C32.1633 23.6577 31.7842 23.4981 31.3883 23.4981C30.9927 23.4981 30.6136 23.6577 30.3371 23.9408C30.0601 24.2235 29.9091 24.6059 29.9178 25.0019C29.9178 27.7327 27.7404 29.9134 25.0094 29.9187C22.2785 29.9239 20.0945 27.7528 20.0838 25.0219C20.0727 22.291 22.2354 20.1013 24.9663 20.0849C25.3573 20.0824 25.7307 19.9249 26.0051 19.6471C26.2796 19.3689 26.4323 18.9935 26.4298 18.6029C26.4269 18.2123 26.2694 17.8386 25.9912 17.5645C25.7126 17.2904 25.3368 17.1378 24.9462 17.1411L24.9463 17.141Z" fill="#545AE8"/>
</svg>
