<svg width="33" height="32" viewBox="0 0 33 32" fill="none" xmlns="http://www.w3.org/2000/svg">
<path d="M1.14137 0.888916C0.511122 0.888916 0 1.40002 0 2.03029C0 2.66054 0.510837 3.17167 1.14137 3.17167H5.69458C7.58351 7.85014 9.44398 12.5372 11.3178 17.224L9.59391 21.3731C9.44955 21.7191 9.49015 22.136 9.69847 22.4475C9.90705 22.7591 10.277 22.9557 10.6519 22.9541H29.6737C30.2767 22.9626 30.8313 22.4159 30.8313 21.8127C30.8313 21.2098 30.2766 20.6629 29.6737 20.6714H12.3639L13.3505 18.3176L31.6712 16.8554C32.1507 16.8177 32.5849 16.4441 32.6937 15.9757V9.09656L32 8.09656C31.5 7.59656 30 5.59656 29.6742 4.69327H8.76178L7.52543 1.60223C7.35613 1.18374 6.9188 0.888916 6.46741 0.888916H1.14137ZM9.6774 6.97602L30.5 7.09656L30.6487 14.6561L13.3035 16.0352L9.6774 6.97602ZM14.4568 23.7152C12.3691 23.7152 10.6524 25.4319 10.6524 27.5196C10.6524 29.6072 12.3691 31.3239 14.4568 31.3239C16.5444 31.3239 18.2611 29.6072 18.2611 27.5196C18.2611 25.4319 16.5444 23.7152 14.4568 23.7152ZM25.8698 23.7152C23.7822 23.7152 22.0655 25.4319 22.0655 27.5196C22.0655 29.6072 23.7822 31.3239 25.8698 31.3239C27.9575 31.3239 29.6742 29.6072 29.6742 27.5196C29.6742 25.4319 27.9575 23.7152 25.8698 23.7152ZM14.4568 25.9979C15.3107 25.9979 15.9784 26.6656 15.9784 27.5196C15.9784 28.3735 15.3107 29.0412 14.4568 29.0412C13.6028 29.0412 12.9352 28.3732 12.9352 27.5196C12.9352 26.6656 13.6031 25.9979 14.4568 25.9979ZM25.8698 25.9979C26.7238 25.9979 27.3914 26.6659 27.3914 27.5196C27.3914 28.3735 26.7235 29.0412 25.8698 29.0412C25.0159 29.0412 24.3482 28.3735 24.3482 27.5196C24.3482 26.6656 25.0159 25.9979 25.8698 25.9979Z" fill="white"/>
</svg>
