<svg width="42" height="41" viewBox="0 0 42 41" fill="none" xmlns="http://www.w3.org/2000/svg">
<mask id="path-1-inside-1_570_26" fill="white">
<path fill-rule="evenodd" clip-rule="evenodd" d="M30.6873 36.5485C27.8603 38.2586 24.5451 39.2429 21 39.2429C17.4553 39.2429 14.1404 38.2589 11.3137 36.5491C12.3598 35.1157 13.7127 33.93 15.2769 33.0805C17.0338 32.1262 19.0014 31.6263 21.0007 31.6263C23 31.6263 24.9677 32.1262 26.7246 33.0805C28.2885 33.9299 29.6413 35.1154 30.6873 36.5485ZM32.1548 35.5635C30.4559 33.2143 28.0558 31.455 25.2911 30.5448C26.7372 29.7693 27.9462 28.6164 28.7893 27.2086C29.6324 25.8008 30.0782 24.1908 30.0793 22.5498C30.0842 20.7319 29.5379 18.9552 28.5125 17.4541L35.3361 15.1844C35.5118 15.1267 35.6649 15.0149 35.7734 14.865C35.8819 14.7151 35.9403 14.5348 35.9403 14.3498C35.9403 14.1648 35.8819 13.9845 35.7734 13.8346C35.6649 13.6847 35.5118 13.5729 35.3361 13.5152L21.2789 8.82945C21.098 8.77121 20.9034 8.77121 20.7225 8.82945L6.68 13.5152H6.65072L6.54822 13.5737H6.53357L6.43107 13.6323C6.43107 13.6362 6.42953 13.6399 6.42678 13.6427C6.42404 13.6454 6.42031 13.6469 6.41643 13.6469L6.31393 13.7348L6.24072 13.8227C6.24072 13.8265 6.23917 13.8303 6.23643 13.833C6.23368 13.8358 6.22996 13.8373 6.22607 13.8373L6.1675 13.9398C6.1675 13.9471 6.16384 13.9508 6.16018 13.9544C6.15652 13.9581 6.15286 13.9618 6.15286 13.9691L6.10893 14.0716C6.09071 14.108 6.08071 14.148 6.07965 14.1887C6.06765 14.2316 6.0627 14.2761 6.065 14.3205V26.0348C6.065 26.2678 6.15757 26.4913 6.32233 26.656C6.48709 26.8208 6.71056 26.9134 6.94357 26.9134C7.17659 26.9134 7.40005 26.8208 7.56482 26.656C7.72958 26.4913 7.82214 26.2678 7.82214 26.0348V15.5652L13.4889 17.4541C12.4635 18.9552 11.9172 20.7319 11.9221 22.5498C11.9232 24.1908 12.369 25.8008 13.2121 27.2086C14.0553 28.6164 15.2642 29.7693 16.7104 30.5448C13.9454 31.4551 11.545 33.2146 9.84613 35.5642C5.24149 32.1492 2.25714 26.6731 2.25714 20.5C2.25714 10.1486 10.6486 1.75714 21 1.75714C31.3514 1.75714 39.7429 10.1486 39.7429 20.5C39.7429 26.6727 36.7589 32.1485 32.1548 35.5635ZM41.5 20.5C41.5 31.8218 32.3218 41 21 41C9.67816 41 0.5 31.8218 0.5 20.5C0.5 9.17816 9.67816 0 21 0C32.3218 0 41.5 9.17816 41.5 20.5ZM27.5086 25.9016C28.0429 24.865 28.3218 23.7159 28.3221 22.5498C28.3182 20.9161 27.7723 19.3299 26.77 18.0398L21.2789 19.8702C21.098 19.9284 20.9034 19.9284 20.7225 19.8702L15.2314 18.0398C14.5135 18.9587 14.0254 20.0358 13.8079 21.1814C13.5903 22.327 13.6495 23.5081 13.9806 24.6262C14.3117 25.7443 14.905 26.7671 15.7113 27.6096C16.5176 28.452 17.5134 29.0897 18.6159 29.4696C19.7184 29.8494 20.8957 29.9604 22.0498 29.7933C23.2038 29.6262 24.3013 29.1859 25.2508 28.509C26.2003 27.832 26.9744 26.9381 27.5086 25.9016ZM21.0007 18.113L26.7554 16.1948L32.2757 14.3498L21.0007 10.5866L9.72572 14.3498L15.2461 16.1948L21.0007 18.113Z"/>
</mask>
<path fill-rule="evenodd" clip-rule="evenodd" d="M30.6873 36.5485C27.8603 38.2586 24.5451 39.2429 21 39.2429C17.4553 39.2429 14.1404 38.2589 11.3137 36.5491C12.3598 35.1157 13.7127 33.93 15.2769 33.0805C17.0338 32.1262 19.0014 31.6263 21.0007 31.6263C23 31.6263 24.9677 32.1262 26.7246 33.0805C28.2885 33.9299 29.6413 35.1154 30.6873 36.5485ZM32.1548 35.5635C30.4559 33.2143 28.0558 31.455 25.2911 30.5448C26.7372 29.7693 27.9462 28.6164 28.7893 27.2086C29.6324 25.8008 30.0782 24.1908 30.0793 22.5498C30.0842 20.7319 29.5379 18.9552 28.5125 17.4541L35.3361 15.1844C35.5118 15.1267 35.6649 15.0149 35.7734 14.865C35.8819 14.7151 35.9403 14.5348 35.9403 14.3498C35.9403 14.1648 35.8819 13.9845 35.7734 13.8346C35.6649 13.6847 35.5118 13.5729 35.3361 13.5152L21.2789 8.82945C21.098 8.77121 20.9034 8.77121 20.7225 8.82945L6.68 13.5152H6.65072L6.54822 13.5737H6.53357L6.43107 13.6323C6.43107 13.6362 6.42953 13.6399 6.42678 13.6427C6.42404 13.6454 6.42031 13.6469 6.41643 13.6469L6.31393 13.7348L6.24072 13.8227C6.24072 13.8265 6.23917 13.8303 6.23643 13.833C6.23368 13.8358 6.22996 13.8373 6.22607 13.8373L6.1675 13.9398C6.1675 13.9471 6.16384 13.9508 6.16018 13.9544C6.15652 13.9581 6.15286 13.9618 6.15286 13.9691L6.10893 14.0716C6.09071 14.108 6.08071 14.148 6.07965 14.1887C6.06765 14.2316 6.0627 14.2761 6.065 14.3205V26.0348C6.065 26.2678 6.15757 26.4913 6.32233 26.656C6.48709 26.8208 6.71056 26.9134 6.94357 26.9134C7.17659 26.9134 7.40005 26.8208 7.56482 26.656C7.72958 26.4913 7.82214 26.2678 7.82214 26.0348V15.5652L13.4889 17.4541C12.4635 18.9552 11.9172 20.7319 11.9221 22.5498C11.9232 24.1908 12.369 25.8008 13.2121 27.2086C14.0553 28.6164 15.2642 29.7693 16.7104 30.5448C13.9454 31.4551 11.545 33.2146 9.84613 35.5642C5.24149 32.1492 2.25714 26.6731 2.25714 20.5C2.25714 10.1486 10.6486 1.75714 21 1.75714C31.3514 1.75714 39.7429 10.1486 39.7429 20.5C39.7429 26.6727 36.7589 32.1485 32.1548 35.5635ZM41.5 20.5C41.5 31.8218 32.3218 41 21 41C9.67816 41 0.5 31.8218 0.5 20.5C0.5 9.17816 9.67816 0 21 0C32.3218 0 41.5 9.17816 41.5 20.5ZM27.5086 25.9016C28.0429 24.865 28.3218 23.7159 28.3221 22.5498C28.3182 20.9161 27.7723 19.3299 26.77 18.0398L21.2789 19.8702C21.098 19.9284 20.9034 19.9284 20.7225 19.8702L15.2314 18.0398C14.5135 18.9587 14.0254 20.0358 13.8079 21.1814C13.5903 22.327 13.6495 23.5081 13.9806 24.6262C14.3117 25.7443 14.905 26.7671 15.7113 27.6096C16.5176 28.452 17.5134 29.0897 18.6159 29.4696C19.7184 29.8494 20.8957 29.9604 22.0498 29.7933C23.2038 29.6262 24.3013 29.1859 25.2508 28.509C26.2003 27.832 26.9744 26.9381 27.5086 25.9016ZM21.0007 18.113L26.7554 16.1948L32.2757 14.3498L21.0007 10.5866L9.72572 14.3498L15.2461 16.1948L21.0007 18.113Z" fill="white"/>
<path d="M30.6873 36.5485L31.7225 38.2598L33.5885 37.1309L32.3028 35.3694L30.6873 36.5485ZM11.3137 36.5491L9.69814 35.3701L8.41248 37.1317L10.2786 38.2604L11.3137 36.5491ZM15.2769 33.0805L14.3223 31.323L14.3223 31.323L15.2769 33.0805ZM26.7246 33.0805L27.6791 31.323V31.323L26.7246 33.0805ZM32.1548 35.5635L30.5342 36.7355L31.7204 38.3758L33.3463 37.1699L32.1548 35.5635ZM25.2911 30.5448L24.3459 28.7822L20.2359 30.9862L24.6657 32.4445L25.2911 30.5448ZM28.7893 27.2086L30.5051 28.2362L30.5051 28.2362L28.7893 27.2086ZM30.0793 22.5498L28.0793 22.5444L28.0793 22.5485L30.0793 22.5498ZM28.5125 17.4541L27.8813 15.5563L25.3656 16.3931L26.861 18.5822L28.5125 17.4541ZM35.3361 15.1844L34.7116 13.2844L34.7048 13.2867L35.3361 15.1844ZM35.7734 14.865L34.1534 13.6922L34.1533 13.6922L35.7734 14.865ZM35.7734 13.8346L34.1533 15.0074L34.1534 15.0074L35.7734 13.8346ZM35.3361 13.5152L34.7036 15.4125L34.7116 15.4152L35.3361 13.5152ZM21.2789 8.82945L21.9114 6.93208L21.9016 6.92883L21.8918 6.92567L21.2789 8.82945ZM20.7225 8.82945L20.1096 6.92567L20.0995 6.92892L20.0895 6.93228L20.7225 8.82945ZM6.68 13.5152V15.5152H7.00488L7.31305 15.4123L6.68 13.5152ZM6.65072 13.5152V11.5152H6.11958L5.65843 11.7787L6.65072 13.5152ZM6.54822 13.5737V15.5737H7.07935L7.5405 15.3102L6.54822 13.5737ZM6.53357 13.5737V11.5737H6.00245L5.5413 11.8372L6.53357 13.5737ZM6.43107 13.6323L5.4388 11.8958L4.43107 12.4717V13.6323H6.43107ZM6.42678 13.6427L5.01269 12.2283L5.01245 12.2286L6.42678 13.6427ZM6.41643 13.6469V11.6469H5.67658L5.11485 12.1284L6.41643 13.6469ZM6.31393 13.7348L5.01235 12.2163L4.88493 12.3255L4.77749 12.4544L6.31393 13.7348ZM6.24072 13.8227L4.70428 12.5423L4.24072 13.0986V13.8227H6.24072ZM6.23643 13.833L4.82234 12.4187L4.82209 12.4189L6.23643 13.833ZM6.22607 13.8373V11.8373H5.06543L4.48959 12.845L6.22607 13.8373ZM6.1675 13.9398L4.43102 12.9475L4.1675 13.4087V13.9398H6.1675ZM6.16018 13.9544L4.74606 12.5401L4.74597 12.5402L6.16018 13.9544ZM6.15286 13.9691L7.99115 14.7569L8.15286 14.3796V13.9691H6.15286ZM6.10893 14.0716L7.89772 14.9661L7.92404 14.9135L7.94722 14.8594L6.10893 14.0716ZM6.07965 14.1887L8.00554 14.7281L8.07245 14.4892L8.07896 14.2412L6.07965 14.1887ZM6.065 14.3205H8.065V14.2687L8.06232 14.217L6.065 14.3205ZM6.32233 26.656L4.90811 28.0703L4.90812 28.0703L6.32233 26.656ZM7.56482 26.656L6.1506 25.2418L6.1506 25.2418L7.56482 26.656ZM7.82214 15.5652L8.4546 13.6678L5.82214 12.7903V15.5652H7.82214ZM13.4889 17.4541L15.1404 18.5822L16.6348 16.3945L14.1214 15.5567L13.4889 17.4541ZM11.9221 22.5498L13.9221 22.5485L13.9221 22.5444L11.9221 22.5498ZM13.2121 27.2086L14.9279 26.181L14.9279 26.181L13.2121 27.2086ZM16.7104 30.5448L17.3358 32.4445L21.7655 30.9862L17.6555 28.7822L16.7104 30.5448ZM9.84613 35.5642L8.65474 37.1706L10.2807 38.3765L11.4668 36.7361L9.84613 35.5642ZM28.3221 22.5498L30.3222 22.5505L30.3221 22.545L28.3221 22.5498ZM27.5086 25.9016L25.7309 24.9853L25.7309 24.9853L27.5086 25.9016ZM26.77 18.0398L28.3494 16.8128L27.4807 15.6947L26.1375 16.1424L26.77 18.0398ZM21.2789 19.8702L21.8918 21.7739L21.9016 21.7708L21.9114 21.7675L21.2789 19.8702ZM20.7225 19.8702L20.09 21.7675L20.0998 21.7708L20.1096 21.7739L20.7225 19.8702ZM15.2314 18.0398L15.8639 16.1424L14.5246 15.696L13.6554 16.8085L15.2314 18.0398ZM13.8079 21.1814L11.843 20.8082V20.8082L13.8079 21.1814ZM13.9806 24.6262L15.8983 24.0583L13.9806 24.6262ZM15.7113 27.6096L14.2664 28.9924L14.2664 28.9924L15.7113 27.6096ZM18.6159 29.4696L17.9644 31.3605L17.9644 31.3605L18.6159 29.4696ZM22.0498 29.7933L22.3363 31.7727L22.0498 29.7933ZM26.7554 16.1948L27.3878 18.0922L27.3893 18.0917L26.7554 16.1948ZM21.0007 18.113L20.3683 20.0104L21.0007 20.2212L21.6332 20.0104L21.0007 18.113ZM32.2757 14.3498L32.9097 16.2467L38.5891 14.3485L32.9089 12.4527L32.2757 14.3498ZM21.0007 10.5866L21.6339 8.68947L21.0007 8.47813L20.3675 8.68947L21.0007 10.5866ZM9.72572 14.3498L9.09252 12.4527L3.41238 14.3485L9.09175 16.2467L9.72572 14.3498ZM15.2461 16.1948L14.6121 18.0917L14.6136 18.0922L15.2461 16.1948ZM21 41.2429C24.9202 41.2429 28.5921 40.1534 31.7225 38.2598L29.6521 34.8372C27.1286 36.3638 24.17 37.2429 21 37.2429V41.2429ZM10.2786 38.2604C13.4088 40.1537 17.0803 41.2429 21 41.2429V37.2429C17.8304 37.2429 14.8721 36.364 12.3487 34.8378L10.2786 38.2604ZM12.9292 37.7281C13.8008 36.5338 14.9282 35.5458 16.2314 34.8379L14.3223 31.323C12.4973 32.3142 10.9187 33.6976 9.69814 35.3701L12.9292 37.7281ZM16.2314 34.8379C17.6953 34.0428 19.3348 33.6263 21.0007 33.6263V29.6263C18.668 29.6263 16.3722 30.2096 14.3223 31.323L16.2314 34.8379ZM21.0007 33.6263C22.6666 33.6263 24.3061 34.0428 25.77 34.8379L27.6791 31.323C25.6292 30.2096 23.3335 29.6263 21.0007 29.6263V33.6263ZM25.77 34.8379C27.0731 35.5457 28.2003 36.5335 29.0719 37.7276L32.3028 35.3694C31.0823 33.6973 29.5039 32.3141 27.6791 31.323L25.77 34.8379ZM33.7754 34.3915C31.8302 31.7017 29.082 29.6872 25.9165 28.6451L24.6657 32.4445C27.0295 33.2227 29.0817 34.7269 30.5342 36.7355L33.7754 34.3915ZM26.2362 32.3074C28.001 31.3611 29.4762 29.9541 30.5051 28.2362L27.0735 26.181C26.4161 27.2786 25.4735 28.1776 24.3459 28.7822L26.2362 32.3074ZM30.5051 28.2362C31.534 26.5182 32.078 24.5536 32.0793 22.5511L28.0793 22.5485C28.0785 23.828 27.7309 25.0833 27.0735 26.181L30.5051 28.2362ZM32.0793 22.5552C32.0853 20.3329 31.4175 18.161 30.164 16.326L26.861 18.5822C27.6584 19.7494 28.0831 21.1309 28.0793 22.5444L32.0793 22.5552ZM29.1437 19.3519L35.9673 17.0822L34.7048 13.2867L27.8813 15.5563L29.1437 19.3519ZM35.9606 17.0844C36.5365 16.8952 37.0379 16.5289 37.3934 16.0378L34.1533 13.6922C34.2919 13.5009 34.4872 13.3582 34.7116 13.2844L35.9606 17.0844ZM37.3934 16.0378C37.7489 15.5468 37.9403 14.956 37.9403 14.3498H33.9403C33.9403 14.1136 34.0149 13.8835 34.1534 13.6922L37.3934 16.0378ZM37.9403 14.3498C37.9403 13.7436 37.7489 13.1528 37.3934 12.6618L34.1534 15.0074C34.0149 14.8161 33.9403 14.586 33.9403 14.3498H37.9403ZM37.3934 12.6618C37.0379 12.1707 36.5365 11.8045 35.9606 11.6152L34.7116 15.4152C34.4872 15.3414 34.2919 15.1987 34.1533 15.0074L37.3934 12.6618ZM35.9685 11.6178L21.9114 6.93208L20.6465 10.7268L34.7036 15.4125L35.9685 11.6178ZM21.8918 6.92567C21.3124 6.73913 20.689 6.73913 20.1096 6.92567L21.3354 10.7332C21.1178 10.8033 20.8837 10.8033 20.666 10.7332L21.8918 6.92567ZM20.0895 6.93228L6.04695 11.618L7.31305 15.4123L21.3556 10.7266L20.0895 6.93228ZM6.68 11.5152H6.65072V15.5152H6.68V11.5152ZM5.65843 11.7787L5.55593 11.8372L7.5405 15.3102L7.643 15.2516L5.65843 11.7787ZM6.54822 11.5737H6.53357V15.5737H6.54822V11.5737ZM5.5413 11.8372L5.4388 11.8958L7.42334 15.3688L7.52584 15.3102L5.5413 11.8372ZM4.43107 13.6323C4.43107 13.1059 4.64014 12.6008 5.01269 12.2283L7.84088 15.057C8.21892 14.679 8.43107 14.1665 8.43107 13.6323H4.43107ZM5.01245 12.2286C5.38497 11.856 5.89008 11.6469 6.41643 11.6469V15.6469C6.95054 15.6469 7.46311 15.4348 7.84112 15.0567L5.01245 12.2286ZM5.11485 12.1284L5.01235 12.2163L7.61551 15.2533L7.71801 15.1655L5.11485 12.1284ZM4.77749 12.4544L4.70428 12.5423L7.77716 15.103L7.85037 15.0152L4.77749 12.4544ZM4.24072 13.8227C4.24072 13.2963 4.44978 12.7912 4.82234 12.4187L7.65052 15.2474C8.02856 14.8694 8.24072 14.3568 8.24072 13.8227H4.24072ZM4.82209 12.4189C5.19461 12.0463 5.69973 11.8373 6.22607 11.8373V15.8373C6.76019 15.8373 7.27275 15.6252 7.65076 15.2471L4.82209 12.4189ZM4.48959 12.845L4.43102 12.9475L7.90399 14.9321L7.96256 14.8296L4.48959 12.845ZM4.1675 13.9398C4.1675 13.5733 4.2691 13.2214 4.45022 12.9195C4.59573 12.677 4.77407 12.5121 4.74606 12.5401L7.5743 15.3688C7.59913 15.3439 8.1675 14.8265 8.1675 13.9398H4.1675ZM4.74597 12.5402C4.72125 12.5649 4.15286 13.0824 4.15286 13.9691H8.15286C8.15286 14.3356 8.05126 14.6875 7.87015 14.9894C7.72466 15.2319 7.54634 15.3967 7.57439 15.3687L4.74597 12.5402ZM4.31457 13.1812L4.27064 13.2837L7.94722 14.8594L7.99115 14.7569L4.31457 13.1812ZM4.32014 13.177C4.17094 13.4754 4.08908 13.8028 4.08033 14.1363L8.07896 14.2412C8.07234 14.4932 8.01048 14.7407 7.89772 14.9661L4.32014 13.177ZM4.15375 13.6493C4.08322 13.9012 4.05415 14.1628 4.06768 14.424L8.06232 14.217C8.07125 14.3894 8.05207 14.562 8.00554 14.7281L4.15375 13.6493ZM4.065 14.3205V26.0348H8.065V14.3205H4.065ZM4.065 26.0348C4.065 26.7982 4.36828 27.5304 4.90811 28.0703L7.73655 25.2418C7.94685 25.4521 8.065 25.7374 8.065 26.0348H4.065ZM4.90812 28.0703C5.44796 28.6101 6.18014 28.9134 6.94357 28.9134V24.9134C7.24099 24.9134 7.52623 25.0315 7.73654 25.2418L4.90812 28.0703ZM6.94357 28.9134C7.70701 28.9134 8.43919 28.6101 8.97903 28.0703L6.1506 25.2418C6.36092 25.0315 6.64616 24.9134 6.94357 24.9134V28.9134ZM8.97903 28.0703C9.51887 27.5304 9.82215 26.7982 9.82215 26.0348H5.82214C5.82214 25.7374 5.94029 25.4521 6.1506 25.2418L8.97903 28.0703ZM9.82215 26.0348V15.5652H5.82214V26.0348H9.82215ZM7.18969 17.4625L12.8565 19.3515L14.1214 15.5567L8.4546 13.6678L7.18969 17.4625ZM11.8375 16.326C10.5839 18.161 9.91613 20.3329 9.92215 22.5552L13.9221 22.5444C13.9183 21.1309 14.3431 19.7494 15.1404 18.5822L11.8375 16.326ZM9.92214 22.5511C9.92343 24.5536 10.4674 26.5182 11.4963 28.2362L14.9279 26.181C14.2706 25.0833 13.923 23.828 13.9221 22.5485L9.92214 22.5511ZM11.4963 28.2362C12.5252 29.9541 14.0004 31.3611 15.7652 32.3074L17.6555 28.7822C16.5279 28.1776 15.5853 27.2786 14.9279 26.181L11.4963 28.2362ZM16.085 28.6451C12.9191 29.6873 10.1707 31.702 8.22542 34.3923L11.4668 36.7361C12.9194 34.7272 14.9717 33.2228 17.3358 32.4445L16.085 28.6451ZM0.257143 20.5C0.257143 27.3332 3.56333 33.3946 8.65474 37.1706L11.0375 33.9578C6.91964 30.9038 4.25714 26.013 4.25714 20.5H0.257143ZM21 -0.242857C9.54404 -0.242857 0.257143 9.04404 0.257143 20.5H4.25714C4.25714 11.2532 11.7532 3.75714 21 3.75714V-0.242857ZM41.7429 20.5C41.7429 9.04404 32.456 -0.242857 21 -0.242857V3.75714C30.2468 3.75714 37.7429 11.2532 37.7429 20.5H41.7429ZM33.3463 37.1699C38.4371 33.3938 41.7429 27.3327 41.7429 20.5H37.7429C37.7429 26.0127 35.0807 30.9031 30.9633 33.9572L33.3463 37.1699ZM21 43C33.4264 43 43.5 32.9264 43.5 20.5H39.5C39.5 30.7173 31.2173 39 21 39V43ZM-1.5 20.5C-1.5 32.9264 8.57359 43 21 43V39C10.7827 39 2.5 30.7173 2.5 20.5H-1.5ZM21 -2C8.57359 -2 -1.5 8.07359 -1.5 20.5H2.5C2.5 10.2827 10.7827 2 21 2V-2ZM43.5 20.5C43.5 8.07359 33.4264 -2 21 -2V2C31.2173 2 39.5 10.2827 39.5 20.5H43.5ZM26.3221 22.5492C26.3219 23.3967 26.1192 24.2319 25.7309 24.9853L29.2864 26.8178C29.9666 25.4982 30.3217 24.0351 30.3221 22.5505L26.3221 22.5492ZM25.1906 19.2668C25.9213 20.2073 26.3193 21.3637 26.3222 22.5546L30.3221 22.545C30.3171 20.4686 29.6233 18.4525 28.3494 16.8128L25.1906 19.2668ZM21.9114 21.7675L27.4025 19.9372L26.1375 16.1424L20.6465 17.9728L21.9114 21.7675ZM20.1096 21.7739C20.689 21.9605 21.3124 21.9605 21.8918 21.7739L20.666 17.9664C20.8836 17.8963 21.1178 17.8963 21.3354 17.9664L20.1096 21.7739ZM14.599 19.9372L20.09 21.7675L21.355 17.9728L15.8639 16.1424L14.599 19.9372ZM15.7727 21.5546C15.9309 20.7219 16.2856 19.939 16.8074 19.2712L13.6554 16.8085C12.7414 17.9784 12.12 19.3497 11.843 20.8082L15.7727 21.5546ZM15.8983 24.0583C15.6576 23.2456 15.6146 22.3872 15.7727 21.5546L11.843 20.8082C11.566 22.2668 11.6414 23.7705 12.0629 25.194L15.8983 24.0583ZM17.1562 26.2268C16.5702 25.6144 16.1389 24.871 15.8983 24.0583L12.0629 25.194C12.4844 26.6176 13.2399 27.9198 14.2664 28.9924L17.1562 26.2268ZM19.2674 27.5786C18.466 27.3026 17.7422 26.8391 17.1562 26.2268L14.2664 28.9924C15.2929 30.065 16.5608 30.8769 17.9644 31.3605L19.2674 27.5786ZM21.7632 27.8139C20.9244 27.9354 20.0687 27.8547 19.2674 27.5786L17.9644 31.3605C19.3681 31.8441 20.867 31.9854 22.3363 31.7727L21.7632 27.8139ZM24.0898 26.8804C23.3997 27.3725 22.602 27.6925 21.7632 27.8139L22.3363 31.7727C23.8057 31.5599 25.2029 30.9993 26.4118 30.1375L24.0898 26.8804ZM25.7309 24.9853C25.3426 25.7387 24.7799 26.3884 24.0898 26.8804L26.4118 30.1375C27.6207 29.2756 28.6062 28.1375 29.2864 26.8178L25.7309 24.9853ZM26.1229 14.2974L20.3683 16.2157L21.6332 20.0104L27.3878 18.0922L26.1229 14.2974ZM31.6418 12.4529L26.1214 14.2979L27.3893 18.0917L32.9097 16.2467L31.6418 12.4529ZM20.3675 12.4837L31.6425 16.2469L32.9089 12.4527L21.6339 8.68947L20.3675 12.4837ZM10.3589 16.2469L21.6339 12.4837L20.3675 8.68947L9.09252 12.4527L10.3589 16.2469ZM15.88 14.2979L10.3597 12.4529L9.09175 16.2467L14.6121 18.0917L15.88 14.2979ZM21.6332 16.2157L15.8785 14.2974L14.6136 18.0922L20.3683 20.0104L21.6332 16.2157Z" fill="white" mask="url(#path-1-inside-1_570_26)"/>
</svg>
