<svg width="37" height="26" viewBox="0 0 37 26" fill="none" xmlns="http://www.w3.org/2000/svg">
<path d="M24.0931 12.2334C24.0931 10.6738 23.5039 9.17799 22.4549 8.07538C21.4062 6.97246 19.9836 6.35303 18.5002 6.35303C17.0167 6.35303 15.5941 6.97248 14.5454 8.07538C13.4964 9.17799 12.9072 10.6738 12.9072 12.2334C12.9072 13.7931 13.4964 15.2888 14.5454 16.3914C15.5941 17.4944 17.0167 18.1138 18.5002 18.1138C19.983 18.112 21.4045 17.4919 22.4529 16.3894C23.5016 15.2871 24.0914 13.7925 24.0931 12.2334ZM15.4882 12.2334H15.4885C15.4885 11.3938 15.8057 10.5883 16.3703 9.9943C16.9353 9.4006 17.7014 9.0671 18.5 9.0671C19.2986 9.0671 20.0647 9.4006 20.6297 9.9943C21.1943 10.5883 21.5115 11.3938 21.5115 12.2334C21.5115 13.0731 21.1943 13.8785 20.6297 14.4725C20.0647 15.0662 19.2986 15.3997 18.5 15.3997C17.7017 15.3988 16.9362 15.065 16.3715 14.4713C15.8069 13.8776 15.4894 13.0728 15.4885 12.2334H15.4882Z" fill="#545AE8"/>
<path d="M33.2814 0.542843C33.0048 0.155119 32.5522 -0.0481346 32.0944 0.00972161C31.6366 0.0678803 31.2431 0.378363 31.0618 0.823944C30.8806 1.26983 30.9397 1.78356 31.2163 2.17129C33.3033 5.06588 34.4283 8.60116 34.4188 12.2335C34.4165 16.1402 33.1163 19.9232 30.7429 22.9285C30.4591 23.3023 30.3834 23.8057 30.5438 24.2534C30.704 24.7011 31.0768 25.0271 31.5245 25.111C31.9725 25.1952 32.4295 25.0253 32.7274 24.6639C35.4862 21.1708 36.9979 16.7737 37.0003 12.2335C37.0124 8.01363 35.7058 3.90592 33.2814 0.542796L33.2814 0.542843Z" fill="#545AE8"/>
<path d="M26.3231 20.7774C26.5887 21.0043 26.9289 21.1109 27.2692 21.0743C27.6094 21.0376 27.922 20.8607 28.1387 20.582C29.9206 18.3014 30.9197 15.4559 30.9741 12.5049C31.0289 9.55397 30.1361 6.66969 28.4397 4.31775C28.16 3.93215 27.7059 3.73253 27.2484 3.79463C26.7909 3.85642 26.3997 4.17024 26.2219 4.61792C26.0442 5.06532 26.107 5.57847 26.3867 5.96402C27.6965 7.7633 28.4029 9.9679 28.3951 12.2337C28.3991 14.6543 27.6007 17.0003 26.1372 18.8686C25.9214 19.1479 25.82 19.5056 25.8549 19.8633C25.8897 20.2214 26.058 20.55 26.3231 20.7775V20.7774Z" fill="#545AE8"/>
<path d="M5.26783 25.1525C5.59655 25.1522 5.91289 25.0201 6.15229 24.7832C6.39141 24.5464 6.53575 24.2222 6.55563 23.8772C6.57552 23.5322 6.46949 23.1923 6.25918 22.9267C3.96734 20.0308 2.67318 16.4059 2.58585 12.6395C2.49885 8.8735 3.62387 5.18678 5.77889 2.17641C6.05547 1.78869 6.11453 1.27495 5.93332 0.829071C5.75211 0.383187 5.35855 0.073007 4.90076 0.0148484C4.44297 -0.0430071 3.99034 0.160246 3.71376 0.54797C1.29226 3.91024 -0.0125214 8.01562 9.05765e-05 12.2332C0.00210724 16.7739 1.51375 21.171 4.27297 24.6637C4.519 24.9738 4.88374 25.1529 5.26776 25.1523L5.26783 25.1525Z" fill="#545AE8"/>
<path d="M10.3672 4.06035C10.0949 3.84226 9.75122 3.74684 9.41184 3.79531C9.07246 3.84377 8.76535 4.03218 8.55851 4.31934C6.90597 6.59086 6.01458 9.37341 6.0235 12.2336C6.01832 15.2788 7.02236 18.2309 8.86304 20.5821C9.15431 20.9583 9.61415 21.1427 10.0696 21.0655C10.5251 20.9886 10.9068 20.662 11.071 20.2089C11.2355 19.7557 11.1575 19.2447 10.8662 18.8685C9.40179 17.0004 8.6023 14.6544 8.60488 12.2336C8.59739 9.9672 9.30353 7.76205 10.6132 5.96216C10.8201 5.67561 10.9102 5.31453 10.8641 4.95803C10.818 4.6015 10.6391 4.27891 10.3672 4.06052L10.3672 4.06035Z" fill="#545AE8"/>
</svg>
