<svg width="34" height="37" viewBox="0 0 34 37" fill="none" xmlns="http://www.w3.org/2000/svg">
<path d="M3.81195 35.9847C3.61892 35.9861 24.8529 36.0325 25.0518 36.0325C27.4434 36.0325 29.3879 34.0929 29.3879 31.7086V31.1467H32.4169C32.9227 31.1467 33.333 30.7364 33.333 30.2306V18.0162C33.333 17.5105 32.9227 17.1001 32.4169 17.1001H29.3879V4.32384C29.3879 1.93958 27.442 0 25.0518 0H4.33612C1.94447 0 0 1.93958 0 4.32384V31.7086C0 34.1136 2.1228 35.9847 3.81209 35.9847L3.81195 35.9847ZM5.90668 22.179V21.7673C5.90668 18.6649 8.43137 16.1402 11.5338 16.1402C14.6362 16.1402 17.1608 18.6649 17.1608 21.7673V23.2074H15.9064V22.3011C15.9064 19.8899 13.9448 17.9271 11.5338 17.9271C9.16424 17.9271 7.2391 19.8253 7.17308 22.1776H5.90662L5.90668 22.179ZM8.99331 23.8901V22.3022C8.99331 20.9011 10.1329 19.7604 11.5338 19.7604C12.9349 19.7604 14.0742 20.9 14.0742 22.3022V23.2085H12.825C11.6134 23.2085 11.612 25.0406 12.825 25.0406H13.7863C13.3648 25.8626 12.5185 26.432 11.534 26.432C10.1329 26.4309 8.99323 25.2912 8.99323 23.8901H8.99331ZM4.78917 34.153C5.2374 30.8319 8.09195 28.2631 11.5341 28.2631C14.9763 28.2631 17.8305 30.8317 18.2791 34.153H4.78917ZM31.5011 29.315H24.5707L23.1415 28.2645H24.2703C24.776 28.2645 25.1863 27.8541 25.1863 27.3484V18.933H31.5011V29.315ZM24.2701 17.1006C23.7644 17.1006 23.354 17.5109 23.354 18.0166V26.432H20.3492C19.4672 26.432 19.0962 27.5629 19.8069 28.0859C25.428 31.8418 22.168 31.0538 27.5558 31.1455V31.7074C27.5558 33.0815 26.4319 34.1991 25.0518 34.1991H20.1281C19.7972 30.8952 17.5926 28.142 14.5976 27.0009C15.1388 26.4685 15.527 25.7904 15.7334 25.0382H18.0762C18.5819 25.0382 18.9923 24.6278 18.9923 24.1221V21.7659C18.9923 17.6533 15.6456 14.3067 11.5331 14.3067C7.42061 14.3067 4.07393 17.6534 4.07393 21.7659V23.0936C4.07393 23.5994 4.48426 24.0097 4.99001 24.0097H7.17276C7.20575 25.1785 7.69079 26.2339 8.46861 27.0011C5.59466 28.0969 3.45825 30.6788 2.99773 33.8072C2.30004 33.3649 1.8322 32.5917 1.8322 31.7086V9.40371H27.5558V17.1002L24.2701 17.1006ZM27.5557 4.32427V7.57198H22.0983V1.8326H25.0505C26.4319 1.8326 27.5558 2.95018 27.5558 4.32427H27.5557ZM4.33577 1.8326H20.2655V7.57226H1.83147V4.32427C1.83147 2.95011 2.95394 1.8326 4.33542 1.8326H4.33577Z" fill="#545AE8"/>
<path d="M26.3838 21.9967H30.2314C31.443 21.9967 31.4444 20.1646 30.2314 20.1646H26.3838C25.1722 20.1646 25.1708 21.9967 26.3838 21.9967Z" fill="#545AE8"/>
<path d="M30.2304 23.2078H26.3829C25.1713 23.2078 25.1699 25.0399 26.3829 25.0399H30.2304C31.442 25.0399 31.4434 23.2078 30.2304 23.2078Z" fill="#545AE8"/>
<path d="M30.2304 26.2502H26.3829C25.1713 26.2502 25.1699 28.0824 26.3829 28.0824H30.2304C31.442 28.0824 31.4434 26.2502 30.2304 26.2502Z" fill="#545AE8"/>
</svg>
