<svg width="35" height="29" viewBox="0 0 35 29" fill="none" xmlns="http://www.w3.org/2000/svg">
<path d="M2.73125 0C1.2316 0 0 1.2316 0 2.73125V26.1425C0 27.6422 1.2316 28.8738 2.73125 28.8738H31.6052C33.1048 28.8738 34.3364 27.6422 34.3364 26.1425V2.73125C34.3364 1.2316 33.1048 0 31.6052 0H2.73125ZM2.73125 1.56061H31.6052C32.2671 1.56061 32.7758 2.06931 32.7758 2.73125V7.80376H1.56075V2.73125C1.56075 2.06932 2.06945 1.56061 2.73139 1.56061H2.73125ZM4.68219 2.73125C3.61851 2.73125 2.73125 3.61851 2.73125 4.68219C2.73125 5.74587 3.61851 6.63312 4.68219 6.63312C5.74587 6.63312 6.63313 5.74587 6.63313 4.68219C6.63313 3.61851 5.74587 2.73125 4.68219 2.73125ZM9.7547 2.73125C8.69102 2.73125 7.80376 3.61851 7.80376 4.68219C7.80376 5.74587 8.69102 6.63312 9.7547 6.63312C10.8184 6.63312 11.7056 5.74587 11.7056 4.68219C11.7056 3.61851 10.8184 2.73125 9.7547 2.73125ZM14.8272 2.73125C13.7635 2.73125 12.8763 3.61851 12.8763 4.68219C12.8763 5.74587 13.7635 6.63312 14.8272 6.63312C15.8909 6.63312 16.7782 5.74587 16.7782 4.68219C16.7782 3.61851 15.8909 2.73125 14.8272 2.73125ZM4.68232 4.29186C4.884 4.29186 5.07262 4.48047 5.07262 4.68216C5.07262 4.88384 4.88401 5.07246 4.68232 5.07246C4.48064 5.07246 4.29203 4.88384 4.29203 4.68216C4.29203 4.48047 4.48064 4.29186 4.68232 4.29186ZM9.75484 4.29186C9.95652 4.29186 10.1451 4.48047 10.1451 4.68216C10.1451 4.88384 9.95652 5.07246 9.75484 5.07246C9.55316 5.07246 9.36454 4.88384 9.36454 4.68216C9.36454 4.48047 9.55315 4.29186 9.75484 4.29186ZM14.8273 4.29186C15.029 4.29186 15.2177 4.48047 15.2177 4.68216C15.2177 4.88384 15.029 5.07246 14.8273 5.07246C14.6257 5.07246 14.4371 4.88384 14.4371 4.68216C14.4371 4.48047 14.6257 4.29186 14.8273 4.29186ZM1.56096 9.36437H32.776V26.1425C32.776 26.8044 32.2673 27.3131 31.6054 27.3131H2.73145C2.06953 27.3131 1.56082 26.8044 1.56082 26.1425L1.56096 9.36437Z" fill="#545AE8"/>
<path d="M16.8886 11.3641L5.96332 15.6563C5.67482 15.7706 5.47559 16.0774 5.47559 16.3879C5.47559 16.6985 5.67482 16.993 5.96332 17.1073L6.24366 17.217V19.814C6.00605 20.0296 5.85336 20.3404 5.85336 20.6798C5.85336 21.317 6.38654 21.8504 7.02399 21.8504C7.66115 21.8504 8.19462 21.3173 8.19462 20.6798C8.19462 20.3404 8.04194 20.0296 7.80433 19.814V17.8266L9.36494 18.4485V22.2408C9.36494 22.8885 9.76666 23.3357 10.2185 23.6794C10.6703 24.0231 11.2503 24.3008 11.9378 24.5452C13.3125 25.0338 15.1386 25.3623 17.1687 25.3623C19.1989 25.3623 21.0249 25.0338 22.3996 24.5452C23.0871 24.3011 23.6671 24.0235 24.1189 23.6794C24.5707 23.3357 24.9725 22.8885 24.9725 22.2408V18.4485L28.3743 17.1073C28.6628 16.993 28.8621 16.6982 28.8621 16.3879C28.8621 16.0774 28.6628 15.7706 28.3743 15.6563L17.4491 11.3641C17.2471 11.2825 16.9975 11.3146 16.8881 11.3641H16.8886ZM17.1689 12.9247L25.9725 16.3876L17.1689 19.8382L8.3653 16.3876L17.1689 12.9247ZM10.9258 19.0579L16.8883 21.3991C17.0668 21.4677 17.2707 21.4677 17.4492 21.3991L23.4117 19.0579V22.1917C23.0475 22.6049 22.3527 22.8977 21.8753 23.0698C20.7112 23.4835 19.0294 23.8014 17.1686 23.8014C15.3077 23.8014 13.6262 23.4835 12.4618 23.0698C11.8919 22.8509 11.3323 22.6226 10.9254 22.1917L10.9258 19.0579Z" fill="#545AE8"/>
</svg>
