<svg width="30" height="36" viewBox="0 0 30 36" fill="none" xmlns="http://www.w3.org/2000/svg">
<path d="M12.6057 19.7632C11.9154 19.7632 11.3706 20.308 11.3706 20.9983C11.3706 21.6886 11.9154 22.2334 12.6057 22.2334C13.296 22.2334 13.8409 21.6886 13.8409 20.9983C13.8411 20.3445 13.296 19.7632 12.6057 19.7632Z" fill="#545AE8"/>
<path d="M12.6423 7.77442H12.5695C10.4986 7.81066 8.82764 9.48189 8.82764 11.5525C8.82764 12.0974 9.26351 12.5697 9.84485 12.5697C10.3897 12.5697 10.8621 12.1339 10.8621 11.5525C10.8621 10.5716 11.6613 9.77233 12.6423 9.77233C13.6232 9.77233 14.4224 10.5716 14.4224 11.5525V11.6252C14.4224 12.6062 13.6232 13.4054 12.6423 13.4054C12.0974 13.4054 11.625 13.8413 11.625 14.4227V17.3652C11.625 17.9101 12.0609 18.3825 12.6423 18.3825C13.2236 18.3825 13.6595 17.9466 13.6595 17.3652V15.2582C15.2942 14.8223 16.4569 13.3327 16.4569 11.6252L16.4566 11.5528C16.3841 9.44568 14.7129 7.77441 12.6423 7.77441V7.77442Z" fill="#545AE8"/>
<path d="M29.3902 33.6772L26.8472 31.1342C27.6464 29.9715 28.1188 28.5912 28.1188 27.1017C28.1188 23.1781 24.9218 19.9448 20.962 19.9448C17.0385 19.9448 13.8052 23.1418 13.8052 27.1017C13.8052 31.0252 17.0022 34.2585 20.962 34.2585C22.6695 34.2585 24.2315 33.6772 25.4669 32.6599L27.9371 35.1302C28.1188 35.3119 28.4095 35.4209 28.6637 35.4209C28.9181 35.4209 29.1722 35.3119 29.3902 35.1302C29.7898 34.7306 29.7898 34.0768 29.3902 33.6772ZM15.8757 27.1016C15.8757 24.3042 18.1645 22.0156 20.9617 22.0156C23.7591 22.0156 26.0476 24.3044 26.0476 27.1016C26.0476 29.899 23.7588 32.1875 20.9617 32.1875C18.1643 32.224 15.8757 29.9352 15.8757 27.1016Z" fill="#545AE8"/>
<path d="M26.7746 5.74003L21.8701 0.290665C21.6884 0.108968 21.4704 0 21.2163 0H0.871963C0.399607 0 0 0.399633 0 0.871964V31.7154C0 32.224 0.399633 32.6236 0.908228 32.6236H11.8433C12.3519 32.6236 12.7515 32.224 12.7515 31.7154C12.7515 31.2068 12.3519 30.8071 11.8433 30.8071H1.78013V1.74386H19.7267V7.08424C19.7267 7.59284 20.1263 7.99247 20.6349 7.99247H25.2123V18.4553C25.2123 18.9638 25.612 19.3635 26.1206 19.3635C26.6292 19.3635 27.0288 18.9638 27.0288 18.4553V6.35766C26.9926 6.13972 26.9198 5.92179 26.7746 5.7401V5.74003ZM21.507 2.54326L24.7764 6.21244H21.507V2.54326Z" fill="#545AE8"/>
</svg>
