<svg width="30" height="34" viewBox="0 0 30 34" fill="none" xmlns="http://www.w3.org/2000/svg">
<path d="M29.9999 30.8824C29.9898 29.3435 29.1724 27.923 27.8469 27.1413C28.622 26.5229 29.1042 25.6095 29.1781 24.6206C29.2522 23.6318 28.9107 22.657 28.2362 21.9302C27.5619 21.2034 26.615 20.7903 25.6234 20.7903C24.632 20.7903 23.6851 21.2034 23.0105 21.9302C22.3362 22.6569 21.9947 23.6318 22.0686 24.6206C22.1425 25.6095 22.625 26.5229 23.4 27.1413C22.0745 27.923 21.2569 29.3435 21.2471 30.8824V33.5295H30L29.9999 30.8824ZM25.6234 22.2354C26.1945 22.2354 26.7421 22.4621 27.1458 22.8659C27.5495 23.2696 27.7763 23.8172 27.7763 24.3883C27.7763 24.9592 27.5495 25.5068 27.1458 25.9105C26.742 26.3143 26.1945 26.5413 25.6234 26.5413C25.0524 26.5413 24.5049 26.3143 24.1012 25.9105C23.6974 25.5067 23.4704 24.9592 23.4704 24.3883C23.4704 23.8172 23.6974 23.2696 24.1012 22.8659C24.5049 22.4622 25.0525 22.2354 25.6234 22.2354ZM28.588 32.1177H22.6587V30.8823C22.6587 29.8232 23.2237 28.8443 24.1411 28.3148C25.0584 27.7852 26.1886 27.7852 27.1057 28.3148C28.023 28.8444 28.5882 29.8232 28.5882 30.8823L28.588 32.1177Z" fill="#545AE8"/>
<path d="M8.75282 30.8824C8.74297 29.3435 7.92536 27.923 6.59987 27.1413C7.3749 26.5229 7.85742 25.6095 7.93128 24.6206C8.00514 23.6318 7.66367 22.657 6.98937 21.9302C6.31481 21.2034 5.36792 20.7903 4.37653 20.7903C3.38489 20.7903 2.438 21.2034 1.7637 21.9302C1.08914 22.6569 0.747668 23.6318 0.821786 24.6206C0.895645 25.6095 1.37793 26.5229 2.15294 27.1413C0.827458 27.923 0.010084 29.3435 0 30.8824V33.5295H8.75294L8.75282 30.8824ZM4.37647 22.2354C4.94739 22.2354 5.49492 22.4621 5.89866 22.8659C6.30239 23.2696 6.52941 23.8172 6.52941 24.3883C6.52941 24.9592 6.30242 25.5068 5.89866 25.9105C5.49489 26.3143 4.94735 26.5413 4.37647 26.5413C3.80531 26.5413 3.25777 26.3143 2.85403 25.9105C2.45029 25.5067 2.22353 24.9592 2.22353 24.3883C2.22353 23.8172 2.45028 23.2696 2.85403 22.8659C3.25779 22.4622 3.80534 22.2354 4.37647 22.2354ZM7.34111 32.1177H1.41158V30.8823C1.41158 29.8232 1.97684 28.8443 2.89412 28.3148C3.8112 27.7852 4.94143 27.7852 5.85876 28.3148C6.77609 28.8444 7.34111 29.8232 7.34111 30.8823V32.1177Z" fill="#545AE8"/>
<path d="M10.6237 30.8824V33.5295H19.3766V30.8824C19.3665 29.3435 18.5491 27.923 17.2237 27.1413C17.9987 26.5229 18.481 25.6095 18.5548 24.6206C18.6287 23.6318 18.2875 22.657 17.6129 21.9302C16.9384 21.2034 15.9917 20.7903 15.0001 20.7903C14.0084 20.7903 13.0618 21.2034 12.3872 21.9302C11.7127 22.6569 11.3715 23.6318 11.4453 24.6206C11.5192 25.6095 12.0015 26.5229 12.7765 27.1413C11.451 27.923 10.6336 29.3435 10.6235 30.8824H10.6237ZM15.0002 22.2354C15.5711 22.2354 16.1189 22.4621 16.5226 22.8659C16.9264 23.2696 17.1531 23.8172 17.1531 24.3883C17.1531 24.9592 16.9264 25.5068 16.5226 25.9105C16.1189 26.3143 15.5711 26.5413 15.0002 26.5413C14.4293 26.5413 13.8815 26.3143 13.4778 25.9105C13.074 25.5067 12.8473 24.9592 12.8473 24.3883C12.8473 23.8172 13.074 23.2696 13.4778 22.8659C13.8815 22.4622 14.4293 22.2354 15.0002 22.2354ZM12.0356 30.8824C12.0356 29.8233 12.6006 28.8445 13.5179 28.3149C14.4352 27.7854 15.5652 27.7854 16.4825 28.3149C17.3999 28.8445 17.9649 29.8234 17.9649 30.8824V32.1179H12.0356L12.0356 30.8824Z" fill="#545AE8"/>
<path d="M1.48242 15.1765H7.16477L9.35295 19.0941L11.5411 15.1765H18.4588L20.6472 19.0941L22.8354 15.1765H29.2236V0H1.48242V15.1765ZM2.89406 1.41176L27.8117 1.41152V13.7645H21.9881L20.6471 16.1998L19.3058 13.7645H10.6941L9.35282 16.1998L8.01158 13.7645H2.89425L2.89406 1.41176Z" fill="#545AE8"/>
<path d="M5.54102 4.80005H15.8822V6.21169H5.54102V4.80005Z" fill="#545AE8"/>
<path d="M5.54102 8.64697H24.4587V10.0586H5.54102V8.64697Z" fill="#545AE8"/>
</svg>
