<svg width="32" height="36" viewBox="0 0 32 36" fill="none" xmlns="http://www.w3.org/2000/svg">
<path d="M5.30631 35.3112C5.40752 35.3533 5.5175 35.3787 5.62719 35.3787C5.84685 35.3787 6.06623 35.2942 6.22681 35.1339L14.4339 26.9268C14.9742 26.9771 15.4977 27.0195 16.0043 27.0195C16.5109 27.0195 17.0345 26.9774 17.5747 26.9183L25.7818 35.1254C25.9421 35.2857 26.1618 35.3703 26.3815 35.3703C26.4912 35.3703 26.6011 35.3533 26.7023 35.3027C27.0147 35.176 27.2259 34.8636 27.2259 34.5258V30.5911H31.1606C31.4985 30.5911 31.8108 30.3884 31.9375 30.0676C32.0641 29.7467 31.9966 29.3922 31.7517 29.1473L25.5879 22.9835C28.087 20.4759 29.5141 17.0732 29.5141 13.5099C29.5141 6.06268 23.4517 0 16.0042 0C8.55706 0 2.49438 6.06239 2.49438 13.5099C2.49438 17.0731 3.92121 20.4758 6.41214 23.0001L0.248282 29.164C0.00345873 29.4088 -0.064108 29.7718 0.0625447 30.0842C0.189197 30.3966 0.501588 30.6078 0.839396 30.6078H4.7741V34.5425C4.78258 34.8718 4.98528 35.1842 5.30615 35.3109L5.30631 35.3112ZM29.1257 28.9109H26.3815C25.917 28.9109 25.537 29.2909 25.537 29.7554V32.4996L19.5759 26.5385C21.3069 26.0655 22.9194 25.255 24.3381 24.1321L29.1257 28.9109ZM4.18381 13.51C4.18381 6.99163 9.48629 1.6893 16.0045 1.6893C22.5227 1.6893 27.8252 6.99178 27.8252 13.51C27.8252 16.8959 26.3729 20.1214 23.8399 22.359C22.1258 23.8789 20.0234 24.8666 17.7775 25.2044C16.5364 25.3732 15.4893 25.3732 14.2567 25.2044C12.0024 24.8666 9.8999 23.8873 8.18582 22.359C5.63583 20.1217 4.18352 16.8963 4.18352 13.51H4.18381ZM2.88334 28.9109L7.66249 24.1318C9.08114 25.2462 10.6937 26.0652 12.4247 26.5382L6.47202 32.4909V29.7466C6.47202 29.2821 6.09207 28.9022 5.62758 28.9022L2.88334 28.9025V28.9109Z" fill="#545AE8"/>
<path d="M16.0044 21.1095C20.1924 21.1095 23.6036 17.6983 23.6036 13.5103C23.6036 9.32229 20.1924 5.91113 16.0044 5.91113C11.8164 5.91113 8.40527 9.32229 8.40527 13.5103C8.40527 17.6983 11.8164 21.1095 16.0044 21.1095ZM16.0044 7.59959C19.2638 7.59959 21.915 10.2508 21.915 13.5101C21.915 16.7695 19.2638 19.4207 16.0044 19.4207C12.7451 19.4207 10.0939 16.7695 10.0939 13.5101C10.0939 10.2508 12.7451 7.59959 16.0044 7.59959Z" fill="#545AE8"/>
</svg>
